<svg width="55" height="55" viewBox="0 0 55 55" fill="none" xmlns="http://www.w3.org/2000/svg">
<circle cx="27.5" cy="27.5" r="27.5" fill="white"/>
<g clip-path="url(#clip0_32_86)">
<path d="M23.0899 35.7328C23.0899 35.8422 22.9639 35.9297 22.805 35.9297C22.6241 35.9461 22.4981 35.8586 22.4981 35.7328C22.4981 35.6234 22.6241 35.5359 22.783 35.5359C22.9474 35.5195 23.0899 35.607 23.0899 35.7328ZM21.3859 35.4867C21.3475 35.5961 21.4571 35.7219 21.6215 35.7547C21.7639 35.8094 21.9283 35.7547 21.9612 35.6453C21.994 35.5359 21.8899 35.4102 21.7256 35.3609C21.5831 35.3227 21.4242 35.3773 21.3859 35.4867ZM23.8076 35.3937C23.6487 35.432 23.5392 35.5359 23.5556 35.6617C23.572 35.7711 23.7145 35.8422 23.8789 35.8039C24.0378 35.7656 24.1473 35.6617 24.1309 35.5523C24.1145 35.4484 23.9665 35.3773 23.8076 35.3937ZM27.4129 14.4375C19.8134 14.4375 14 20.1961 14 27.7812C14 33.8461 17.8244 39.0359 23.2871 40.8625C23.9884 40.9883 24.235 40.5562 24.235 40.2008C24.235 39.8617 24.2186 37.9914 24.2186 36.843C24.2186 36.843 20.3832 37.6633 19.5778 35.2133C19.5778 35.2133 18.9531 33.6219 18.0546 33.2117C18.0546 33.2117 16.7998 32.3531 18.1422 32.3695C18.1422 32.3695 19.5065 32.4789 20.2572 33.7805C21.4571 35.8914 23.4679 35.2844 24.2514 34.9234C24.3775 34.0484 24.7336 33.4414 25.1281 33.0805C22.0653 32.7414 18.975 32.2984 18.975 27.0375C18.975 25.5336 19.3915 24.7789 20.2681 23.8164C20.1257 23.4609 19.6599 21.9953 20.4106 20.1031C21.5557 19.7477 24.1912 21.5797 24.1912 21.5797C25.287 21.2734 26.465 21.1148 27.6321 21.1148C28.7991 21.1148 29.9771 21.2734 31.073 21.5797C31.073 21.5797 33.7084 19.7422 34.8536 20.1031C35.6042 22.0008 35.1385 23.4609 34.996 23.8164C35.8727 24.7844 36.4096 25.5391 36.4096 27.0375C36.4096 32.3148 33.1824 32.7359 30.1196 33.0805C30.6237 33.5125 31.051 34.3328 31.051 35.618C31.051 37.4609 31.0346 39.7414 31.0346 40.1898C31.0346 40.5453 31.2866 40.9773 31.9825 40.8516C37.4616 39.0359 41.1765 33.8461 41.1765 27.7812C41.1765 20.1961 35.0125 14.4375 27.4129 14.4375ZM19.3257 33.2992C19.2545 33.3539 19.2709 33.4797 19.3641 33.5836C19.4517 33.6711 19.5778 33.7094 19.649 33.6383C19.7202 33.5836 19.7038 33.4578 19.6106 33.3539C19.523 33.2664 19.3969 33.2281 19.3257 33.2992ZM18.734 32.8562C18.6956 32.9273 18.7504 33.0148 18.86 33.0695C18.9477 33.1242 19.0572 33.1078 19.0956 33.0312C19.1339 32.9602 19.0792 32.8727 18.9696 32.818C18.86 32.7852 18.7723 32.8016 18.734 32.8562ZM20.5092 34.8031C20.4215 34.8742 20.4544 35.0383 20.5804 35.1422C20.7065 35.268 20.8653 35.2844 20.9366 35.1969C21.0078 35.1258 20.9749 34.9617 20.8653 34.8578C20.7448 34.732 20.5804 34.7156 20.5092 34.8031ZM19.8846 33.9992C19.7969 34.0539 19.7969 34.1961 19.8846 34.3219C19.9722 34.4477 20.1202 34.5023 20.1914 34.4477C20.2791 34.3766 20.2791 34.2344 20.1914 34.1086C20.1147 33.9828 19.9722 33.9281 19.8846 33.9992Z" fill="#25BEF5"/>
</g>
<defs>
<clipPath id="clip0_32_86">
<rect width="27.1765" height="28" fill="white" transform="translate(14 14)"/>
</clipPath>
</defs>
</svg>
