<svg width="55" height="55" viewBox="0 0 55 55" fill="none" xmlns="http://www.w3.org/2000/svg">
<circle cx="27.5" cy="27.5" r="27.5" fill="white"/>
<g clip-path="url(#clip0_32_85)">
<path d="M27.4917 20.9862C23.9466 20.9862 21.087 23.8919 21.087 27.4942C21.087 31.0966 23.9466 34.0022 27.4917 34.0022C31.0369 34.0022 33.8964 31.0966 33.8964 27.4942C33.8964 23.8919 31.0369 20.9862 27.4917 20.9862ZM27.4917 31.7253C25.2007 31.7253 23.3278 29.8278 23.3278 27.4942C23.3278 25.1606 25.1952 23.2632 27.4917 23.2632C29.7883 23.2632 31.6556 25.1606 31.6556 27.4942C31.6556 29.8278 29.7827 31.7253 27.4917 31.7253ZM35.6523 20.72C35.6523 21.564 34.9834 22.238 34.1584 22.238C33.3279 22.238 32.6645 21.5583 32.6645 20.72C32.6645 19.8817 33.3334 19.2021 34.1584 19.2021C34.9834 19.2021 35.6523 19.8817 35.6523 20.72ZM39.8942 22.2606C39.7995 20.2272 39.3424 18.4261 37.8764 16.9421C36.4159 15.4581 34.6434 14.9937 32.6422 14.8917C30.5798 14.7728 24.3981 14.7728 22.3356 14.8917C20.3401 14.988 18.5675 15.4524 17.1015 16.9364C15.6355 18.4204 15.184 20.2216 15.0836 22.255C14.9666 24.3507 14.9666 30.6321 15.0836 32.7278C15.1784 34.7612 15.6355 36.5624 17.1015 38.0464C18.5675 39.5304 20.3345 39.9948 22.3356 40.0968C24.3981 40.2157 30.5798 40.2157 32.6422 40.0968C34.6434 40.0005 36.4159 39.536 37.8764 38.0464C39.3368 36.5624 39.7939 34.7612 39.8942 32.7278C40.0113 30.6321 40.0113 24.3563 39.8942 22.2606ZM37.2298 34.9765C36.795 36.0866 35.9533 36.9419 34.8552 37.3894C33.2108 38.052 29.3089 37.8991 27.4917 37.8991C25.6745 37.8991 21.7671 38.0464 20.1283 37.3894C19.0357 36.9476 18.194 36.0923 17.7537 34.9765C17.1015 33.3056 17.252 29.3407 17.252 27.4942C17.252 25.6478 17.1071 21.6772 17.7537 20.012C18.1884 18.9019 19.0301 18.0466 20.1283 17.5991C21.7726 16.9364 25.6745 17.0894 27.4917 17.0894C29.3089 17.0894 33.2164 16.9421 34.8552 17.5991C35.9477 18.0409 36.7894 18.8962 37.2298 20.012C37.8819 21.6829 37.7314 25.6478 37.7314 27.4942C37.7314 29.3407 37.8819 33.3112 37.2298 34.9765Z" fill="#25BEF5"/>
</g>
<defs>
<clipPath id="clip0_32_85">
<rect width="24.9722" height="29" fill="white" transform="translate(15 13)"/>
</clipPath>
</defs>
</svg>
