<svg width="55" height="55" viewBox="0 0 55 55" fill="none" xmlns="http://www.w3.org/2000/svg">
<circle cx="27.5" cy="27.5" r="27.5" fill="white"/>
<g clip-path="url(#clip0_32_88)">
<path d="M38.88 15.75H17.7545C16.7865 15.75 16 16.543 16 17.5164V38.4836C16 39.457 16.7865 40.25 17.7545 40.25H38.88C39.848 40.25 40.64 39.457 40.64 38.4836V17.5164C40.64 16.543 39.848 15.75 38.88 15.75ZM23.447 36.75H19.795V25.0578H23.4525V36.75H23.447ZM21.621 23.4609C20.4495 23.4609 19.5035 22.5148 19.5035 21.3555C19.5035 20.1961 20.4495 19.25 21.621 19.25C22.787 19.25 23.7385 20.1961 23.7385 21.3555C23.7385 22.5203 22.7925 23.4609 21.621 23.4609ZM37.1365 36.75H33.4845V31.0625C33.4845 29.7063 33.457 27.9617 31.587 27.9617C29.684 27.9617 29.3925 29.4383 29.3925 30.9641V36.75H25.7405V25.0578H29.244V26.6547H29.2935C29.783 25.7359 30.9765 24.768 32.753 24.768C36.449 24.768 37.1365 27.1906 37.1365 30.3406V36.75Z" fill="#25BEF5"/>
</g>
<defs>
<clipPath id="clip0_32_88">
<rect width="24.64" height="28" fill="white" transform="translate(16 14)"/>
</clipPath>
</defs>
</svg>
