<svg width="55" height="55" viewBox="0 0 55 55" fill="none" xmlns="http://www.w3.org/2000/svg">
<circle cx="27.5" cy="27.5" r="27.5" fill="white"/>
<g clip-path="url(#clip0_32_87)">
<path d="M38.5 25.4789C36.0915 25.4841 33.7423 24.7322 31.7844 23.3297V33.1078C31.7838 34.9188 31.2303 36.6864 30.198 38.1743C29.1656 39.6621 27.7035 40.7993 26.0073 41.4337C24.3111 42.0682 22.4617 42.1696 20.7063 41.7244C18.9509 41.2792 17.3733 40.3087 16.1844 38.9426C14.9956 37.5765 14.2522 35.88 14.0536 34.08C13.8551 32.2799 14.2108 30.4622 15.0734 28.8698C15.9359 27.2775 17.2641 25.9864 18.8802 25.1694C20.4964 24.3523 22.3235 24.0482 24.1172 24.2977V29.2141C23.297 28.9559 22.4163 28.9634 21.6006 29.2356C20.785 29.5079 20.0763 30.0308 19.5756 30.7298C19.0749 31.4289 18.8078 32.2682 18.8126 33.128C18.8173 33.9879 19.0936 34.8242 19.602 35.5177C20.1104 36.2111 20.8249 36.7262 21.6435 36.9894C22.4621 37.2526 23.3429 37.2504 24.1601 36.9831C24.9774 36.7159 25.6893 36.1973 26.1943 35.5013C26.6992 34.8054 26.9714 33.9677 26.9719 33.1078V14H31.7844C31.7817 14.407 31.8165 14.8134 31.8883 15.2141C32.0557 16.1071 32.4034 16.9567 32.9102 17.7108C33.417 18.4649 34.0723 19.1077 34.8359 19.6C35.923 20.318 37.1973 20.7002 38.5 20.6992V25.4789Z" fill="#25BEF5"/>
</g>
<defs>
<clipPath id="clip0_32_87">
<rect width="24.5" height="28" fill="white" transform="translate(14 14)"/>
</clipPath>
</defs>
</svg>
