<svg width="202" height="167" viewBox="0 0 202 167" fill="none" xmlns="http://www.w3.org/2000/svg">
<g clip-path="url(#clip0_32_97)">
<path d="M132.699 0H74.0846C64.9683 0 57.578 7.36343 57.578 16.4467V149.901C57.578 158.984 64.9683 166.348 74.0846 166.348H132.699C141.816 166.348 149.206 158.984 149.206 149.901V16.4467C149.206 7.36343 141.816 0 132.699 0Z" fill="#3F3D56"/>
<path d="M147.66 16.4478V149.901C147.655 153.853 146.078 157.642 143.273 160.437C140.468 163.232 136.665 164.804 132.699 164.808H74.0851C70.1186 164.804 66.3158 163.232 63.511 160.437C60.7062 157.642 59.1285 153.853 59.1239 149.901V16.4478C59.1285 12.4956 60.7062 8.70667 63.511 5.91208C66.3158 3.11748 70.1186 1.54547 74.0851 1.54089H81.7498V4.17894C81.7499 5.37323 82.2261 6.51858 83.0736 7.36307C83.9212 8.20756 85.0707 8.68201 86.2694 8.68208H120.515C121.713 8.68201 122.863 8.20756 123.71 7.36307C124.558 6.51858 125.034 5.37323 125.034 4.17894V1.54089H132.699C136.665 1.54547 140.468 3.11748 143.273 5.91208C146.078 8.70667 147.655 12.4956 147.66 16.4478Z" fill="white"/>
<path d="M57.1564 33.7456C56.8583 33.7453 56.5725 33.6272 56.3618 33.4172C56.151 33.2072 56.0324 32.9224 56.0321 32.6255V30.3851C56.0321 30.088 56.1506 29.8031 56.3614 29.593C56.5722 29.3829 56.8582 29.2649 57.1564 29.2649C57.4545 29.2649 57.7405 29.3829 57.9514 29.593C58.1622 29.8031 58.2806 30.088 58.2806 30.3851V32.6255C58.2803 32.9224 58.1617 33.2072 57.951 33.4172C57.7402 33.6272 57.4544 33.7453 57.1564 33.7456Z" fill="#3F3D56"/>
<path d="M57.1564 45.2336C56.8583 45.2332 56.5725 45.1151 56.3618 44.9051C56.151 44.6951 56.0324 44.4104 56.0321 44.1134V37.9464C56.0321 37.6493 56.1506 37.3643 56.3614 37.1543C56.5722 36.9442 56.8582 36.8262 57.1564 36.8262C57.4545 36.8262 57.7405 36.9442 57.9514 37.1543C58.1622 37.3643 58.2806 37.6493 58.2806 37.9464V44.1134C58.2803 44.4104 58.1617 44.6951 57.951 44.9051C57.7402 45.1151 57.4544 45.2332 57.1564 45.2336Z" fill="#3F3D56"/>
<path d="M57.1564 54.4691C56.8583 54.4687 56.5725 54.3506 56.3618 54.1406C56.151 53.9306 56.0324 53.6459 56.0321 53.3489V47.1818C56.0321 46.8847 56.1506 46.5998 56.3614 46.3897C56.5722 46.1797 56.8582 46.0616 57.1564 46.0616C57.4545 46.0616 57.7405 46.1797 57.9514 46.3897C58.1622 46.5998 58.2806 46.8847 58.2806 47.1818V53.3489C58.2803 53.6459 58.1617 53.9306 57.951 54.1406C57.7402 54.3506 57.4544 54.4687 57.1564 54.4691Z" fill="#3F3D56"/>
<path d="M149.346 49.4282C149.048 49.4279 148.762 49.3098 148.552 49.0998C148.341 48.8898 148.222 48.605 148.222 48.3081V33.2602C148.222 32.9631 148.34 32.6782 148.551 32.4681C148.762 32.258 149.048 32.14 149.346 32.14C149.644 32.14 149.93 32.258 150.141 32.4681C150.352 32.6782 150.471 32.9631 150.471 33.2602V48.3081C150.47 48.605 150.352 48.8898 150.141 49.0998C149.93 49.3098 149.644 49.4279 149.346 49.4282Z" fill="#3F3D56"/>
<path d="M105.807 5.13766H97.0939C96.9075 5.13766 96.7288 5.0639 96.597 4.9326C96.4653 4.8013 96.3912 4.62323 96.3912 4.43754C96.3912 4.25186 96.4653 4.07379 96.597 3.94249C96.7288 3.81119 96.9075 3.73743 97.0939 3.73743H105.807C105.993 3.73743 106.172 3.81119 106.304 3.94249C106.436 4.07379 106.51 4.25186 106.51 4.43754C106.51 4.62323 106.436 4.8013 106.304 4.9326C106.172 5.0639 105.993 5.13766 105.807 5.13766Z" fill="white"/>
<path d="M110.304 4.99763C110.615 4.99763 110.866 4.74687 110.866 4.43753C110.866 4.1282 110.615 3.87744 110.304 3.87744C109.994 3.87744 109.742 4.1282 109.742 4.43753C109.742 4.74687 109.994 4.99763 110.304 4.99763Z" fill="white"/>
<path d="M177.846 159.351C178.051 159.359 178.254 159.303 178.426 159.192C178.599 159.081 178.733 158.92 178.81 158.73C178.887 158.541 178.905 158.332 178.859 158.132C178.813 157.933 178.707 157.752 178.555 157.615C178.529 157.515 178.51 157.443 178.484 157.343C178.676 156.845 179.012 156.414 179.451 156.107C179.89 155.8 180.41 155.631 180.946 155.621C181.482 155.611 182.009 155.76 182.459 156.05C182.909 156.341 183.262 156.758 183.472 157.249C184.686 160.007 186.25 162.858 185.515 165.915C190.46 155.209 188.617 141.968 181.071 132.925C178.999 131.813 177.308 129.819 176.851 127.488C177.875 127.823 179.139 126.984 178.362 125.92C178.025 125.514 177.685 125.111 177.349 124.705C181.186 120.556 185.866 126.976 181.652 132.567C183.065 134.297 184.291 136.17 185.313 138.154C185.061 136.039 185.317 133.895 186.059 131.898C186.813 130.036 188.245 128.46 189.503 126.845C191.033 124.876 194.228 125.747 194.461 128.224C193.036 128.706 192.87 130.765 194.507 131.031C194.123 135.647 191.14 139.914 186.994 141.976C188.573 146.262 189.217 150.833 188.884 155.386C189.568 150.062 195.284 148.718 199.268 146.566C199.521 146.401 199.817 146.313 200.12 146.312C200.423 146.312 200.719 146.399 200.973 146.564C201.227 146.728 201.427 146.963 201.549 147.239C201.671 147.515 201.71 147.82 201.661 148.118C201.111 148.347 200.585 148.63 200.09 148.963C199.859 149.121 199.682 149.347 199.584 149.609C199.487 149.872 199.473 150.158 199.545 150.428C199.616 150.699 199.771 150.941 199.986 151.121C200.201 151.3 200.467 151.41 200.747 151.433C198.776 156.429 193.59 159.82 188.231 159.852C187.737 162.087 187.012 164.264 186.066 166.35L178.113 166.425C178.083 166.337 178.057 166.247 178.03 166.159C178.767 166.198 179.506 166.147 180.23 166.007C178.26 163.728 176.743 162.57 177.846 159.351Z" fill="#84C383"/>
<path d="M23.8898 159.351C23.6845 159.359 23.4819 159.303 23.3095 159.192C23.137 159.081 23.0029 158.92 22.9255 158.73C22.8481 158.541 22.831 158.332 22.8766 158.132C22.9222 157.933 23.0282 157.752 23.1804 157.615C23.2066 157.515 23.2254 157.443 23.2516 157.343C23.06 156.845 22.7233 156.414 22.2846 156.107C21.8459 155.8 21.3252 155.631 20.7892 155.621C20.2533 155.611 19.7265 155.76 19.2764 156.05C18.8263 156.341 18.4735 156.758 18.2631 157.249C17.0495 160.007 15.4857 162.858 16.2207 165.915C11.2756 155.209 13.1186 141.968 20.6644 132.925C22.7369 131.813 24.4271 129.819 24.8845 127.488C23.8608 127.823 22.5966 126.984 23.374 125.92C23.7104 125.514 24.0501 125.111 24.3865 124.705C20.5499 120.556 15.87 126.976 20.0832 132.567C18.671 134.297 17.4441 136.17 16.4226 138.154C16.6743 136.039 16.4185 133.895 15.6762 131.898C14.9223 130.036 13.491 128.46 12.2327 126.845C10.7028 124.876 7.50709 125.747 7.27503 128.224C8.69967 128.706 8.86567 130.765 7.22824 131.031C7.61233 135.647 10.5959 139.914 14.7417 141.976C13.1624 146.262 12.5181 150.833 12.8515 155.386C12.1672 150.062 6.45127 148.718 2.46769 146.566C2.21442 146.401 1.91836 146.313 1.61562 146.312C1.31289 146.312 1.01656 146.399 0.762789 146.564C0.509021 146.728 0.30878 146.963 0.186494 147.239C0.0642075 147.515 0.0251614 147.82 0.07412 148.118C0.624581 148.347 1.15084 148.63 1.64514 148.963C1.87673 149.121 2.0535 149.347 2.15122 149.609C2.24893 149.872 2.26281 150.158 2.19095 150.428C2.11909 150.699 1.965 150.941 1.74981 151.121C1.53463 151.3 1.26887 151.41 0.988978 151.433C2.95957 156.429 8.14538 159.82 13.5045 159.852C13.9982 162.087 14.7236 164.264 15.6691 166.35L23.6228 166.425C23.6522 166.337 23.6787 166.247 23.7052 166.159C22.9686 166.198 22.2299 166.147 21.5056 166.007C23.4754 163.728 24.993 162.57 23.89 159.351L23.8898 159.351Z" fill="#84C383"/>
<path d="M78.401 8.14178H70.8122C70.4395 8.14178 70.082 7.99425 69.8185 7.73166C69.5549 7.46906 69.4069 7.11291 69.4069 6.74154C69.4069 6.37018 69.5549 6.01402 69.8185 5.75143C70.082 5.48883 70.4395 5.34131 70.8122 5.34131H78.401C78.7737 5.34131 79.1312 5.48883 79.3947 5.75143C79.6583 6.01402 79.8064 6.37018 79.8064 6.74154C79.8064 7.11291 79.6583 7.46906 79.3947 7.73166C79.1312 7.99425 78.7737 8.14178 78.401 8.14178Z" fill="#E6E6E6"/>
<path d="M128.15 8.00174C128.848 8.00174 129.415 7.43753 129.415 6.74153C129.415 6.04554 128.848 5.48132 128.15 5.48132C127.451 5.48132 126.885 6.04554 126.885 6.74153C126.885 7.43753 127.451 8.00174 128.15 8.00174Z" fill="#E6E6E6"/>
<path d="M132.085 8.00174C132.783 8.00174 133.35 7.43753 133.35 6.74153C133.35 6.04554 132.783 5.48132 132.085 5.48132C131.386 5.48132 130.82 6.04554 130.82 6.74153C130.82 7.43753 131.386 8.00174 132.085 8.00174Z" fill="#E6E6E6"/>
<path d="M136.02 8.00174C136.718 8.00174 137.285 7.43753 137.285 6.74153C137.285 6.04554 136.718 5.48132 136.02 5.48132C135.321 5.48132 134.755 6.04554 134.755 6.74153C134.755 7.43753 135.321 8.00174 136.02 8.00174Z" fill="#E6E6E6"/>
<path d="M127.266 27.7126H79.5685C78.6445 27.7139 77.7588 28.0802 77.1055 28.7311C76.4521 29.3821 76.0845 30.2646 76.0833 31.1852V62.0772C76.0845 62.9978 76.4521 63.8803 77.1055 64.5313C77.7588 65.1822 78.6445 65.5485 79.5685 65.5498H127.266C128.19 65.549 129.076 65.1828 129.729 64.5318C130.383 63.8807 130.75 62.9979 130.751 62.0772V31.1852C130.75 30.2645 130.383 29.3817 129.729 28.7306C129.076 28.0796 128.19 27.7134 127.266 27.7126Z" fill="#F2F2F2"/>
<path d="M112.333 40.9005C108.023 48.4938 103.266 55.827 98.0883 62.8617H90.6085C95.5078 56.9148 100.411 50.9678 105.317 45.0209C106.725 43.3086 108.252 41.5148 110.364 40.819L112.333 40.9005Z" fill="#3F3D56"/>
<path d="M102.393 39.6829C101.613 40.4928 100.865 41.3354 100.161 42.2106C98.612 44.0697 97.0845 45.9451 95.5514 47.8151C94.5966 48.9783 93.6419 50.1416 92.6981 51.3049C92.3983 51.1131 92.1138 50.8987 91.847 50.6635C90.3394 49.3598 89.4044 47.5196 89.2422 45.5373C89.08 43.5549 89.7035 41.5881 90.9792 40.0583C92.2548 38.5285 94.0811 37.5574 96.0668 37.3531C98.0524 37.1488 100.039 37.7276 101.602 38.9653C101.883 39.1842 102.148 39.424 102.393 39.6829Z" fill="#25BEF5"/>
<path d="M130.751 38.7997V39.9283L130.245 39.7434L123.125 37.1502C120.807 36.3072 118.493 35.3439 116.099 34.7362C114.015 34.1424 111.803 34.1706 109.735 34.8174C107.892 35.4968 106.206 36.5397 104.777 37.8839C104.145 38.4664 103.532 39.0629 102.939 39.6818C102.745 39.8862 102.551 40.0907 102.36 40.2951C101.787 40.9168 101.233 41.5525 100.708 42.2106C99.1589 44.0701 97.6299 45.9465 96.098 47.8144C95.1424 48.9794 94.1868 50.1416 93.2424 51.3037C90.0888 55.1488 86.954 59.0013 83.8379 62.8613C83.4182 62.8566 83.0004 62.804 82.5928 62.7044C85.7716 58.7698 88.9655 54.8454 92.1743 50.9313C92.2474 50.8417 92.3205 50.7521 92.3936 50.6624C92.7702 50.1948 93.1553 49.7243 93.5375 49.2566C95.1368 47.3047 96.737 45.3546 98.3381 43.4064C99.5018 41.9894 100.657 40.5668 101.911 39.2225C101.986 39.1357 102.065 39.0517 102.147 38.9649C102.267 38.8361 102.388 38.71 102.512 38.5784C105.236 35.7752 108.634 33.2967 112.703 33.2295C115.098 33.1931 117.411 33.9493 119.637 34.7474C122.035 35.6127 124.424 36.4921 126.819 37.3658L130.751 38.7997Z" fill="#3F3D56"/>
<path d="M131.872 133.755H74.9116C73.9877 133.754 73.1019 133.388 72.4485 132.737C71.7952 132.086 71.4277 131.204 71.4266 130.283V122.634C71.4277 121.714 71.7952 120.831 72.4485 120.18C73.1019 119.529 73.9877 119.163 74.9116 119.162H131.872C132.796 119.163 133.682 119.529 134.335 120.18C134.989 120.831 135.356 121.714 135.357 122.634V130.283C135.356 131.204 134.989 132.086 134.335 132.737C133.682 133.388 132.796 133.754 131.872 133.755Z" fill="#F2F2F2"/>
<path d="M131.872 94.5489H74.9116C73.9877 94.5478 73.1019 94.1816 72.4485 93.5307C71.7952 92.8797 71.4277 91.9971 71.4266 91.0765V83.4277C71.4277 82.5071 71.7952 81.6245 72.4485 80.9735C73.1019 80.3225 73.9877 79.9564 74.9116 79.9553H131.872C132.796 79.9564 133.682 80.3225 134.335 80.9735C134.989 81.6245 135.356 82.5071 135.357 83.4277V91.0765C135.356 91.9971 134.989 92.8797 134.335 93.5307C133.682 94.1816 132.796 94.5478 131.872 94.5489Z" fill="#F2F2F2"/>
<path d="M131.872 114.152H74.9116C73.9877 114.151 73.1019 113.785 72.4485 113.134C71.7952 112.483 71.4277 111.6 71.4266 110.68V103.031C71.4277 102.11 71.7952 101.228 72.4485 100.577C73.1019 99.9258 73.9877 99.5596 74.9116 99.5586H131.872C132.796 99.5596 133.682 99.9258 134.335 100.577C134.989 101.228 135.356 102.11 135.357 103.031V110.68C135.356 111.6 134.989 112.483 134.335 113.134C133.682 113.785 132.796 114.151 131.872 114.152Z" fill="#F2F2F2"/>
<path d="M110.312 125.15H93.5292C93.3301 125.15 93.1391 125.071 92.9983 124.93C92.8575 124.79 92.7784 124.6 92.7784 124.402C92.7784 124.203 92.8575 124.013 92.9983 123.873C93.1391 123.732 93.3301 123.653 93.5292 123.653H110.312C110.511 123.653 110.702 123.732 110.843 123.873C110.984 124.013 111.063 124.203 111.063 124.402C111.063 124.6 110.984 124.79 110.843 124.93C110.702 125.071 110.511 125.15 110.312 125.15Z" fill="white"/>
<path d="M126.454 129.264H93.3416C93.1425 129.264 92.9515 129.185 92.8107 129.045C92.6699 128.904 92.5908 128.714 92.5908 128.516C92.5908 128.317 92.6699 128.127 92.8107 127.987C92.9515 127.847 93.1425 127.768 93.3416 127.768H126.454C126.653 127.768 126.844 127.847 126.985 127.987C127.126 128.127 127.205 128.317 127.205 128.516C127.205 128.714 127.126 128.904 126.985 129.045C126.844 129.185 126.653 129.264 126.454 129.264Z" fill="white"/>
<path d="M84.6131 131.474C87.3932 131.474 89.6469 129.229 89.6469 126.459C89.6469 123.689 87.3932 121.443 84.6131 121.443C81.833 121.443 79.5793 123.689 79.5793 126.459C79.5793 129.229 81.833 131.474 84.6131 131.474Z" fill="white"/>
<path d="M83.4914 133.233C82.9777 132.994 82.3906 132.964 81.855 133.15C81.3195 133.335 80.8777 133.722 80.6237 134.227C80.5737 134.33 80.5324 134.438 80.5002 134.548L72.9201 134.999L71.7966 138.912L82.1134 137.175C82.5827 137.273 83.0712 137.213 83.5027 137.005C83.9343 136.797 84.2845 136.453 84.4989 136.025C84.6185 135.781 84.6887 135.516 84.7054 135.244C84.7221 134.973 84.685 134.701 84.5962 134.444C84.5075 134.187 84.3688 133.95 84.188 133.747C84.0073 133.543 83.7881 133.377 83.543 133.258C83.5259 133.249 83.5087 133.241 83.4914 133.233Z" fill="#FFB6B6"/>
<path d="M66.7597 113.933C66.2602 113.729 65.7226 113.635 65.1833 113.657C64.6441 113.679 64.1159 113.816 63.6347 114.059C63.1534 114.303 62.7305 114.647 62.3946 115.068C62.0586 115.489 61.8176 115.977 61.6879 116.498L59.6039 124.884L59.9959 139.554C59.9959 139.554 70.8737 141.634 72.6999 140.297C74.526 138.96 74.3545 137.965 74.526 138.96C74.6975 139.955 75.4813 140.373 75.4921 139.977C75.503 139.581 75.5917 139.648 76.0468 139.529C76.5018 139.41 78.5103 138.672 78.5103 138.672L78.6002 134.49C78.6002 134.49 75.2798 133.236 74.4743 133.61C73.6687 133.984 74.6457 134.605 73.6687 133.984C72.6917 133.363 72.5849 131.403 72.4179 133.17C72.2508 134.936 71.7618 135.265 71.0293 134.479C70.2968 133.694 66.903 134.196 66.903 134.196L69.0626 117.889C69.1712 117.068 69.0042 116.235 68.5876 115.52C68.1709 114.804 67.5282 114.246 66.7597 113.933Z" fill="#25BEF5"/>
<path d="M140.016 157.436L140.13 154.347L128.226 152.438L128.058 156.996L140.016 157.436Z" fill="#FFB6B6"/>
<path d="M137.855 158.366L137.742 153.42L139.864 153.498L143.29 148.926C143.459 148.7 143.696 148.534 143.967 148.452C144.237 148.37 144.527 148.376 144.794 148.47C145.061 148.564 145.29 148.74 145.45 148.973C145.609 149.206 145.689 149.484 145.678 149.765L145.461 155.641L143.324 156.576L145.409 157.049L145.327 159.264L137.855 158.366Z" fill="#2F2E41"/>
<path d="M73.0206 164.52L110.724 160.151C110.724 160.151 127.005 161.088 130.825 158.612L134.854 158.106L135.072 152.21C135.072 152.21 132.609 152.228 131.192 151.57C129.776 150.913 130.761 150.108 129.41 150.899C128.06 151.691 128.203 151.786 127.158 151.422C126.114 151.059 78.2387 149.109 78.2387 149.109L73.0206 164.52Z" fill="#2F2E41"/>
<path d="M122.703 161.961L124.896 159.774L117.473 150.308L114.237 153.536L122.703 161.961Z" fill="#FFB6B6"/>
<path d="M120.485 161.179L123.778 157.477L125.28 158.972L130.913 157.941C131.191 157.891 131.478 157.93 131.733 158.053C131.987 158.176 132.195 158.377 132.327 158.627C132.458 158.876 132.506 159.161 132.464 159.439C132.422 159.718 132.291 159.976 132.091 160.175L127.921 164.335L125.716 163.573L126.922 165.332L125.349 166.9L120.485 161.179Z" fill="#2F2E41"/>
<path d="M58.1456 143.946L58.5205 152.627C58.9617 162.847 70.2576 169.033 79.0168 163.697C79.1782 163.598 79.3402 163.496 79.5027 163.391C79.5027 163.391 82.8233 162.502 82.7225 161.095C82.6217 159.688 83.4329 159.003 84.1508 159.387C84.8687 159.771 94.2681 146.48 94.2681 146.48C94.2681 146.48 113.797 156.186 118.105 158.471L122.651 157.237C122.651 157.237 124.362 158.042 123.746 156.877C123.129 155.713 123.019 156.271 122.83 155.002C122.64 153.733 122.156 152.16 121.862 152.226C121.569 152.293 97.7026 135.649 97.7026 135.649C97.7026 135.649 93.8145 131.728 88.9915 134.317C88.8911 134.697 88.977 134.711 88.977 134.711L73.0448 147.646L70.7937 143.386L58.1456 143.946Z" fill="#2F2E41"/>
<path d="M68.8539 112.048L62.0229 108.858L59.9778 112.404C59.9778 112.404 54.4852 120.213 54.4056 125.847C54.3259 131.481 55.3007 133.157 55.3007 133.157C55.3007 133.157 52.9325 134.921 54.1166 135.999C55.3007 137.077 57.9221 137.543 55.9087 138.01C53.8953 138.477 54.4056 143.21 56.6541 144.05C58.9026 144.89 70.9785 144.883 70.9785 144.883C70.8699 144.516 70.8619 144.127 70.9553 143.756C71.0487 143.385 71.2401 143.045 71.5096 142.773C72.4458 141.838 73.289 142.509 72.4458 141.053C71.6026 139.598 70.1972 140.438 71.3215 138.477C72.4458 136.517 72.4454 135.931 72.4454 135.931C72.4454 135.931 74.7373 131.585 71.2851 126.871C71.0747 126.583 71.2516 126.572 71.2516 126.572L68.464 117.264L68.8539 112.048Z" fill="#25BEF5"/>
<path d="M57.8455 98.6355C57.9033 100.073 56.9939 102.11 56.5461 103.338C56.0674 104.651 58.1424 106.394 59.4705 106.776C59.5397 106.321 59.7674 105.905 60.1138 105.601C60.0181 106.034 60.0097 106.482 60.0893 106.919L71.3173 109.466C73.3372 107.135 75.3683 103.785 74.9252 99.7438C75.0313 98.9765 74.9076 98.195 74.5695 97.4975C74.2314 96.8 73.6941 96.2175 73.025 95.8231L67.3487 92.482C64.9342 91.9344 61.8937 91.6037 60.1498 93.0922C59.3706 93.7829 58.7585 94.6405 58.3595 95.6005C57.9604 96.5605 57.7847 97.5981 57.8455 98.6355Z" fill="#2F2E41"/>
<path d="M67.8817 108.235C71.4519 108.235 74.3462 105.351 74.3462 101.794C74.3462 98.2364 71.4519 95.3527 67.8817 95.3527C64.3114 95.3527 61.4171 98.2364 61.4171 101.794C61.4171 105.351 64.3114 108.235 67.8817 108.235Z" fill="#FFB6B6"/>
<path d="M60.3084 98.3526L59.9965 99.7179L65.4502 100.955C65.455 100.679 65.5171 100.407 65.6325 100.156C65.7479 99.9045 65.9142 99.6799 66.1208 99.4959C66.0032 100.031 66.0166 100.587 66.16 101.116C69.1012 102.76 71.7521 103.343 74.1292 102.924C74.4513 102.997 74.7893 102.939 75.0688 102.764C75.3484 102.589 75.5467 102.31 75.62 101.989C76.5764 97.8033 74.0707 93.5249 69.8901 92.4859C68.8739 92.2327 67.8172 92.1842 66.782 92.3433C65.7467 92.5024 64.7538 92.8658 63.8614 93.4122C62.969 93.9586 62.195 94.6771 61.5849 95.5254C60.9748 96.3738 60.5408 97.335 60.3084 98.3526Z" fill="#2F2E41"/>
<path d="M63.497 89.3448C64.2161 89.1893 64.9771 89.2269 65.6273 88.7416L65.2009 89.7168C66.3831 89.3941 67.6435 89.5195 68.7382 90.0689C69.0638 90.2143 69.3414 90.4484 69.5391 90.7443C69.6453 90.9231 69.7099 91.1233 69.7281 91.3302C69.7464 91.5371 69.7177 91.7455 69.6444 91.9399C69.5745 92.1067 69.4705 92.2572 69.3389 92.3816C69.2074 92.5061 69.0512 92.6019 68.8804 92.6628C68.5777 92.7535 68.2606 92.7865 67.9457 92.7603C66.6184 92.7295 65.2912 92.6987 63.964 92.6679C63.4582 92.6992 62.9527 92.6013 62.4955 92.3836C62.2524 92.234 62.0585 92.0169 61.9375 91.7591C61.8164 91.5012 61.7736 91.2138 61.8142 90.932C61.9408 90.0454 62.7779 89.5003 63.497 89.3448Z" fill="#2F2E41"/>
<path d="M98.5642 139.826C98.5488 139.808 98.531 139.791 98.5113 139.778C98.463 139.722 98.4042 139.676 98.3382 139.643L97.8651 139.39L94.7246 135.916C94.5429 135.822 94.3314 135.802 94.1349 135.86L94.1268 135.863L92.7815 136.277L91.6245 136.635L90.0083 137.134L79 140.53L71.764 142.763C71.5684 142.824 71.4049 142.96 71.3087 143.141C71.2125 143.321 71.1914 143.532 71.2498 143.728C71.2838 143.836 71.3401 143.936 71.415 144.021L71.6453 144.276L72.1282 144.812L73.2472 147.123L73.5577 147.468C73.6566 147.578 73.7849 147.657 73.9276 147.697C74.0702 147.737 74.2213 147.736 74.3632 147.693L98.2018 141.088C98.3256 141.048 98.4377 140.979 98.5282 140.885C98.6186 140.792 98.6846 140.678 98.7204 140.553C98.7562 140.429 98.7607 140.297 98.7335 140.17C98.7062 140.043 98.6481 139.925 98.5642 139.826Z" fill="#CCCCCC"/>
<path d="M97.1489 105.463L96.6873 105.537C96.5607 105.558 96.4476 105.628 96.3726 105.732L96.1692 106.015L94.3346 110.586C94.2599 110.691 94.2299 110.82 94.2512 110.947L94.4662 112.249L93.6538 135.495C93.6743 135.615 93.7391 135.723 93.8355 135.798L97.3975 140.546L97.4806 140.612L97.66 140.752C97.752 140.822 97.8662 140.859 97.9823 140.854L98.285 140.839C98.3538 140.836 98.421 140.818 98.4823 140.787C98.5436 140.756 98.5976 140.712 98.6407 140.659C98.6842 140.606 98.7157 140.544 98.7331 140.478C98.7506 140.412 98.7535 140.342 98.7417 140.275L97.7084 105.861C97.6875 105.734 97.6171 105.621 97.5126 105.547C97.4081 105.472 97.2781 105.442 97.1513 105.462L97.1489 105.463Z" fill="#CCCCCC"/>
<path d="M96.376 107.269L94.7508 112.202L94.1221 131.904L96.6517 134.144L96.376 107.269Z" fill="#25BEF5"/>
<path d="M83.8085 137.323C83.2948 137.084 82.7077 137.054 82.1722 137.239C81.6366 137.425 81.1949 137.811 80.9409 138.316C80.8909 138.42 80.8496 138.527 80.8174 138.637L73.2372 139.089L72.1138 143.002L82.4306 141.265C82.8998 141.362 83.3883 141.303 83.8199 141.094C84.2514 140.886 84.6017 140.542 84.816 140.115C85.0576 139.621 85.0927 139.053 84.9134 138.534C84.7341 138.015 84.3552 137.588 83.8601 137.347C83.843 137.339 83.8258 137.331 83.8085 137.323Z" fill="#FFB6B6"/>
<path d="M67.0768 118.022C66.5773 117.818 66.0397 117.724 65.5004 117.746C64.9612 117.768 64.433 117.905 63.9518 118.149C63.4706 118.392 63.0476 118.736 62.7117 119.157C62.3758 119.578 62.1347 120.066 62.005 120.588L59.921 128.973L60.313 143.643C60.313 143.643 71.1909 145.723 73.017 144.386C74.8431 143.049 74.6717 142.054 74.8432 143.049C75.0146 144.044 75.7984 144.462 75.8093 144.066C75.8202 143.67 75.9088 143.738 76.3639 143.619C76.819 143.499 78.8274 142.762 78.8274 142.762L78.9174 138.579C78.9174 138.579 75.597 137.325 74.7914 137.699C73.9858 138.073 74.9629 138.694 73.9858 138.073C73.0088 137.452 72.902 135.493 72.735 137.259C72.568 139.025 72.0789 139.354 71.3464 138.569C70.6139 137.783 67.2202 138.285 67.2202 138.285L69.3797 121.978C69.4884 121.158 69.3213 120.325 68.9047 119.609C68.4881 118.893 67.8453 118.335 67.0768 118.022Z" fill="#25BEF5"/>
<path d="M1.48038e-06 166.667C-0.000129516 166.711 0.00843451 166.754 0.0251979 166.794C0.0419612 166.835 0.0665956 166.872 0.0976819 166.903C0.128768 166.934 0.165692 166.958 0.206333 166.975C0.246974 166.992 0.290528 167 0.334489 167H201.379C201.468 167 201.553 166.965 201.616 166.902C201.678 166.84 201.714 166.755 201.714 166.667C201.714 166.578 201.678 166.494 201.616 166.431C201.553 166.369 201.468 166.333 201.379 166.333H0.334472C0.290513 166.333 0.246963 166.342 0.206324 166.359C0.165686 166.375 0.128762 166.4 0.0976776 166.431C0.0665934 166.462 0.0419607 166.499 0.0251979 166.539C0.00843503 166.58 -0.000128013 166.623 1.48038e-06 166.667Z" fill="#3B3B3C"/>
<path d="M177.405 94.5489H120.445C119.521 94.5478 118.635 94.1816 117.981 93.5307C117.328 92.8797 116.961 91.9971 116.96 91.0765V83.4277C116.961 82.5071 117.328 81.6245 117.981 80.9735C118.635 80.3225 119.521 79.9564 120.445 79.9553H177.405C178.329 79.9564 179.215 80.3225 179.868 80.9735C180.522 81.6245 180.889 82.5071 180.89 83.4277V91.0765C180.889 91.9971 180.522 92.8797 179.868 93.5307C179.215 94.1816 178.329 94.5478 177.405 94.5489Z" fill="#E6E6E6"/>
<path d="M155.845 85.943H139.062C138.863 85.943 138.672 85.8642 138.531 85.7239C138.39 85.5836 138.311 85.3933 138.311 85.195C138.311 84.9966 138.39 84.8063 138.531 84.666C138.672 84.5257 138.863 84.4469 139.062 84.4469H155.845C156.044 84.4469 156.235 84.5257 156.376 84.666C156.517 84.8063 156.596 84.9966 156.596 85.195C156.596 85.3933 156.517 85.5836 156.376 85.7239C156.235 85.8642 156.044 85.943 155.845 85.943Z" fill="white"/>
<path d="M171.987 90.0573H138.874C138.675 90.0573 138.484 89.9784 138.344 89.8382C138.203 89.6979 138.124 89.5076 138.124 89.3092C138.124 89.1108 138.203 88.9205 138.344 88.7803C138.484 88.64 138.675 88.5612 138.874 88.5612H171.987C172.186 88.5612 172.377 88.64 172.518 88.7803C172.659 88.9205 172.738 89.1108 172.738 89.3092C172.738 89.5076 172.659 89.6979 172.518 89.8382C172.377 89.9784 172.186 90.0573 171.987 90.0573Z" fill="white"/>
<path d="M130.146 92.2675C132.926 92.2675 135.18 90.022 135.18 87.2521C135.18 84.4821 132.926 82.2366 130.146 82.2366C127.366 82.2366 125.112 84.4821 125.112 87.2521C125.112 90.022 127.366 92.2675 130.146 92.2675Z" fill="white"/>
<path d="M159.136 114.152H102.175C101.251 114.151 100.365 113.785 99.7121 113.134C99.0587 112.483 98.6912 111.6 98.6902 110.68V103.031C98.6912 102.11 99.0587 101.228 99.7121 100.577C100.365 99.9258 101.251 99.5596 102.175 99.5586H159.136C160.06 99.5596 160.946 99.9258 161.599 100.577C162.252 101.228 162.62 102.11 162.621 103.031V110.68C162.62 111.6 162.252 112.483 161.599 113.134C160.946 113.785 160.06 114.151 159.136 114.152Z" fill="#E6E6E6"/>
<path d="M137.576 105.546H120.793C120.594 105.546 120.403 105.467 120.262 105.327C120.121 105.187 120.042 104.997 120.042 104.798C120.042 104.6 120.121 104.41 120.262 104.269C120.403 104.129 120.594 104.05 120.793 104.05H137.576C137.775 104.05 137.966 104.129 138.107 104.269C138.247 104.41 138.327 104.6 138.327 104.798C138.327 104.997 138.247 105.187 138.107 105.327C137.966 105.467 137.775 105.546 137.576 105.546Z" fill="white"/>
<path d="M153.717 109.661H120.605C120.406 109.661 120.215 109.582 120.074 109.441C119.933 109.301 119.854 109.111 119.854 108.912C119.854 108.714 119.933 108.524 120.074 108.384C120.215 108.243 120.406 108.164 120.605 108.164H153.717C153.917 108.164 154.108 108.243 154.248 108.384C154.389 108.524 154.468 108.714 154.468 108.912C154.468 109.111 154.389 109.301 154.248 109.441C154.108 109.582 153.917 109.661 153.717 109.661Z" fill="white"/>
<path d="M111.877 111.871C114.657 111.871 116.91 109.625 116.91 106.855C116.91 104.085 114.657 101.84 111.877 101.84C109.096 101.84 106.843 104.085 106.843 106.855C106.843 109.625 109.096 111.871 111.877 111.871Z" fill="white"/>
</g>
<defs>
<clipPath id="clip0_32_97">
<rect width="201.713" height="167" fill="white"/>
</clipPath>
</defs>
</svg>
