<svg width="181" height="167" viewBox="0 0 181 167" fill="none" xmlns="http://www.w3.org/2000/svg">
<g clip-path="url(#clip0_32_220)">
<path d="M173.571 20.0469H175.36C176.731 9.56778 166.186 1.61003 154.092 0.63855C158.842 1.72392 163.188 4.1203 166.634 7.55299C170.079 10.9857 172.483 15.3158 173.571 20.0469Z" fill="#F2F2F2"/>
<path d="M145.734 51.3124C144.722 51.3001 143.752 51.2661 142.825 51.2103C143.787 51.3581 144.764 51.3923 145.734 51.3124Z" fill="#F2F2F2"/>
<path d="M123.225 25.745C123.459 11.9417 134.502 0.708407 148.362 0.708407C150.266 0.507088 152.184 0.4837 154.092 0.638548C150.307 -0.216902 146.378 -0.212779 142.595 0.65061C138.812 1.514 135.273 3.2145 132.24 5.62602C129.207 8.03753 126.757 11.0982 125.074 14.581C123.39 18.0638 122.515 21.8795 122.514 25.745C122.514 38.8334 122.984 49.9999 142.825 51.2104C132.773 49.6898 123.042 36.5836 123.225 25.745Z" fill="#F2F2F2"/>
<path d="M173.275 26.1482C168.731 33.8901 150.867 39.5679 148.362 50.7819C147.51 51.0605 146.628 51.2385 145.734 51.3124C146.558 51.3224 147.407 51.3192 148.289 51.299C162.407 51.299 173.986 40.1553 174.205 26.1482L173.275 26.1482Z" fill="#F2F2F2"/>
<path d="M150.391 44.5586C147.087 37.4199 145.64 29.7264 146.653 21.2978C146.497 20.3173 147.046 19.3347 147.88 19.1013L162.838 14.939C163.673 14.7079 164.477 15.3141 164.635 16.2941L168.372 39.5549C168.529 40.5354 167.98 41.518 167.146 41.7514L152.188 45.9136C151.353 46.1447 150.549 45.5386 150.391 44.5586Z" fill="white"/>
<path d="M157.475 17.5124C157.691 15.8504 156.737 14.3579 155.344 14.1786C153.951 13.9994 152.647 15.2013 152.432 16.8633C152.216 18.5252 153.17 20.0177 154.563 20.197C155.956 20.3762 157.26 19.1743 157.475 17.5124Z" fill="#F2F2F2"/>
<path d="M130.122 33.1835C126.818 26.0448 125.371 18.3513 126.385 9.92267C126.228 8.94215 126.777 7.95955 127.611 7.72617L142.569 3.56392C143.404 3.33278 144.208 3.93895 144.366 4.91895L148.104 28.1797C148.26 29.1603 147.711 30.1429 146.877 30.3762L131.919 34.5385C131.084 34.7696 130.28 34.1635 130.122 33.1835Z" fill="white"/>
<path d="M137.207 6.13723C137.422 4.47531 136.468 2.98274 135.075 2.8035C133.682 2.62427 132.378 3.82623 132.163 5.48815C131.947 7.15007 132.902 8.64262 134.294 8.82186C135.687 9.0011 136.991 7.79915 137.207 6.13723Z" fill="#F2F2F2"/>
<path d="M150.595 110.466H0V110.954H150.595V110.466Z" fill="#3F3D56"/>
<path d="M61.2566 52.8704C61.079 52.2512 63.5626 57.9272 62.9718 57.9955C60.2807 58.303 54.3178 59.6892 52.4435 60.436C52.3591 60.4262 52.2747 60.4165 52.1928 60.4043C51.9917 60.3823 51.7956 60.3506 51.6019 60.314C47.2377 59.4915 43.9359 55.9211 43.8466 51.6111C43.8416 51.5501 43.8416 51.4867 43.8416 51.4257C43.841 51.1281 43.8568 50.8307 43.8888 50.5349C43.9299 50.1309 44.0004 49.7304 44.0998 49.3366L44.0899 49.3342C42.3521 47.7088 43.0844 44.6948 45.2988 43.4233C46.261 42.8722 47.3281 42.5273 48.4318 42.4105C48.731 42.3781 49.0319 42.3618 49.3329 42.3617H52.1605C52.7456 42.2361 53.3387 42.1505 53.9355 42.1054H53.9405C59.6329 41.6734 64.1212 45.1292 63.7017 49.3342C63.6992 49.3391 63.6942 49.3439 63.6918 49.3488C63.5701 49.5294 63.4634 49.7002 63.369 49.8638C63.2772 50.0175 63.2002 50.1639 63.1332 50.3031C62.6144 51.3769 63.948 52.7281 63.0637 52.9803C61.8875 53.3157 66.1571 64.3408 61.5016 64.3408C63.7662 64.9821 61.7466 54.5788 61.2566 52.8704Z" fill="#2F2E41"/>
<path d="M87.2311 159.438L90.9026 159.407L92.5274 144.974L87.1094 145.019L87.2311 159.438Z" fill="#FFB6B6"/>
<path d="M98.9907 165.252C98.9939 165.686 98.8245 166.103 98.5194 166.412C98.2143 166.721 97.7986 166.897 97.3634 166.901L90.0642 166.962L88.7863 164.382L88.317 166.975L85.5629 167L86.2583 157.752L87.2165 157.688L91.1249 157.42L92.3858 157.336L92.408 159.952L98.2714 163.914C98.4911 164.062 98.6713 164.262 98.7966 164.495C98.9218 164.728 98.9885 164.988 98.9907 165.252Z" fill="#2F2E41"/>
<path d="M91.8849 152.199C90.4245 152.023 86.7393 151.711 86.7393 151.711C86.7393 151.711 84.9996 148.094 85.2814 146.969C85.5583 145.839 86.2493 145.61 85.6073 145.019C84.044 139.264 84.294 129.917 84.294 129.917C84.294 129.917 75.8797 125.859 67.3602 121.161C59.0317 116.565 50.6028 111.36 49.8408 108.736C49.3378 106.86 49 104.943 48.8313 103.008C48.7039 101.739 48.6255 100.494 48.5764 99.3791C48.4613 96.8263 48.5078 94.9398 48.5078 94.9398L59.1248 94.7641L66.1571 94.603H66.8922V95.8233L68.7397 98.952C68.7397 98.952 71.9324 102.649 71.5575 102.993C71.1042 103.411 71.2414 103.782 72.8512 104.084C73.309 104.164 73.7753 104.183 74.2381 104.141C76.8378 103.943 77.9257 105.424 77.9894 105.749C78.4256 108.04 82.7993 113.019 86.8961 117.268H86.8986C90.6794 121.192 94.2224 124.492 94.2224 124.492L94.4234 128.702L95.3667 148.384C95.3667 148.384 93.5976 147.398 95.178 149.524C96.7585 151.652 93.3452 152.372 91.8849 152.199Z" fill="#2F2E41"/>
<path d="M131.717 106.432L133.216 103.093L120.714 95.6189L118.501 100.546L131.717 106.432Z" fill="#FFB6B6"/>
<path d="M141.917 98.1988C142.314 98.3761 142.624 98.7031 142.779 99.108C142.935 99.513 142.923 99.9627 142.745 100.359L139.765 106.995L136.878 107.08L139.05 108.583L137.927 111.088L129.773 106.612L130.113 105.718L131.494 102.066L131.942 100.889L134.34 101.957L140.395 98.2936C140.622 98.1564 140.879 98.0761 141.144 98.0596C141.409 98.0431 141.674 98.0908 141.917 98.1988Z" fill="#2F2E41"/>
<path d="M125.286 98.3516C125.277 98.3707 125.267 98.388 125.258 98.4036C124.575 99.6523 123.454 102.542 123.384 102.72C123.383 102.723 123.381 102.727 123.381 102.73C123.381 102.73 119.682 102.54 118.737 101.865C117.79 101.184 119.223 102.26 117.039 100.837C115.91 100.097 112.042 98.9422 108.577 97.9984C105.354 97.1204 102.482 96.4299 102.482 96.4299C102.482 96.4299 99.9433 98.7314 96.2651 101.912L96.2634 101.914C92.847 104.861 88.4446 108.567 84.1782 111.886C75.044 114.562 65.4033 116.881 62.9933 115.578C61.2991 114.617 59.6923 113.51 58.1912 112.27L60.6729 105.791L67.236 98.9453L74.1447 96.1493L76.8473 95.0548L80.6317 93.5252L101.121 85.2336L123.811 93.0616C123.811 93.0616 122.231 94.3334 124.803 93.6625C127.34 93.0022 126 97.013 125.286 98.3516Z" fill="#2F2E41"/>
<path d="M53.6607 60.6801H61.0115L62.1689 63.2245L67.0917 65.4092C67.7319 65.6938 68.296 66.1242 68.7386 66.6658C69.1811 67.2074 69.4896 67.845 69.6393 68.5272C71.4119 76.5983 69.1696 78.2752 69.0974 80.9362C68.8524 89.9661 67.5899 91.7622 67.7311 93.9914C67.7733 94.6585 68.1822 97.2963 69.4974 97.0479C70.8126 96.7995 70.1036 97.8423 70.4149 98.2477C70.6839 98.598 72.0983 98.1331 71.2104 99.2967C70.3226 100.46 74.1184 103.633 71.7927 103.633C67.3822 103.633 58.5613 105.829 55.1309 105.829C51.7006 105.829 49.0496 106.842 47.5351 106.806C46.612 106.783 46.9006 102.496 47.2696 98.7832C47.3531 97.9426 48.9739 97.9645 47.5194 96.4058C46.0649 94.8471 47.777 94.0371 47.7801 93.6268C47.7834 93.191 48.6047 92.0932 47.5798 90.2975C46.555 88.5018 47.4997 89.2449 47.4552 88.681C47.1122 84.3357 46.6206 78.7952 46.6206 78.7952L44.4537 72.7208C43.8998 71.1682 43.973 69.4619 44.6579 67.962C45.3428 66.4621 46.5858 65.2858 48.1248 64.6812L50.6666 63.6825L53.6607 60.6801Z" fill="#25BEF5"/>
<path d="M105.287 58.4395C105.123 58.743 104.896 59.0076 104.62 59.2149C104.344 59.4222 104.026 59.5673 103.688 59.6401C103.35 59.713 103 59.7118 102.662 59.6368C102.325 59.5617 102.008 59.4146 101.733 59.2055L91.3781 65.0445L89.0524 62.5888L101.402 55.7432C101.79 55.3088 102.324 55.0311 102.904 54.9629C103.483 54.8946 104.068 55.0404 104.547 55.3728C105.026 55.7051 105.366 56.2009 105.502 56.7661C105.638 57.3313 105.562 57.9267 105.287 58.4395Z" fill="#FFB6B6"/>
<path d="M58.6627 72.2224L58.505 74.1027L79.1201 73.8388L99.6402 62.3488L96.6403 57.7499L78.6043 65.3029L65.7855 65.5618C63.9815 65.5983 62.255 66.2992 60.9395 67.5294C59.6241 68.7595 58.8129 70.4315 58.6627 72.2224Z" fill="#25BEF5"/>
<path d="M56.1751 59.3395C59.8725 59.3395 62.8698 56.3541 62.8698 52.6715C62.8698 48.9889 59.8725 46.0035 56.1751 46.0035C52.4778 46.0035 49.4805 48.9889 49.4805 52.6715C49.4805 56.3541 52.4778 59.3395 56.1751 59.3395Z" fill="#FFB6B6"/>
<path d="M63.7017 49.6978C63.59 49.7564 63.4807 49.8101 63.369 49.8638C63.2524 49.9199 63.1357 49.976 63.019 50.0273C60.7773 51.0401 58.9527 51.1524 57.8454 49.6978C57.8158 48.9325 57.6432 48.1793 57.3365 47.477C57.3907 48.2619 57.183 49.0426 56.7457 49.6978H54.5164C52.2201 51.2158 51.0409 51.3744 52.6346 56.3579C53.079 57.7466 54.8459 65.8271 54.1508 67.0254C53.9497 67.0034 51.7955 60.3506 51.6019 60.314C47.2377 59.4915 43.9359 55.9211 43.8466 51.6112C43.8515 51.3915 43.8664 51.1719 43.8888 50.9571C44.1763 50.5266 44.4922 50.1157 44.8346 49.7271C44.8328 48.575 45.0988 47.4382 45.6116 46.4056C46.2604 45.0973 47.2717 44.0014 48.5261 43.2476C49.2737 42.8865 50.0532 42.5948 50.8547 42.3763C50.8745 42.3714 50.8919 42.3665 50.9118 42.3617C51.1575 42.2958 51.4083 42.2348 51.659 42.1835C52.177 42.0746 52.7008 41.9955 53.228 41.9468C53.2652 41.9443 53.3024 41.9419 53.3372 41.9419C53.5477 41.9424 53.7542 41.9988 53.9355 42.1054C53.938 42.1054 53.938 42.1079 53.9404 42.1079C54.07 42.1832 54.1831 42.2836 54.2731 42.4032C54.4317 42.6042 54.5174 42.8528 54.5164 43.1085H56.9989C57.0907 43.1085 57.1826 43.1109 57.2745 43.1158C58.9313 43.1722 60.5074 43.8424 61.6943 44.9952C62.8812 46.148 63.5935 47.7005 63.6918 49.3488C63.6992 49.466 63.7017 49.5807 63.7017 49.6978Z" fill="#2F2E41"/>
<path d="M47.0451 50.918C49.481 50.918 51.4556 48.9512 51.4556 46.5251C51.4556 44.099 49.481 42.1322 47.0451 42.1322C44.6093 42.1322 42.6346 44.099 42.6346 46.5251C42.6346 48.9512 44.6093 50.918 47.0451 50.918Z" fill="#2F2E41"/>
<path d="M52.4357 43.1084C52.5199 45.5331 50.4611 47.5013 48.0252 47.5013C46.8555 47.5013 45.7337 47.0385 44.9065 46.2146C44.0794 45.3908 43.6147 44.2735 43.6147 43.1084C43.6147 40.6823 46.5647 40.6571 48.0252 38.7155C50.0913 35.9687 52.3221 39.8385 52.4357 43.1084Z" fill="#2F2E41"/>
<path d="M58.2023 111.828C57.5174 101.707 59.5223 92.186 65.0902 83.4611C65.2303 82.8871 65.5932 82.3919 66.0994 82.0841C66.6056 81.7763 67.2137 81.681 67.7903 81.8192L89.2996 87.0004C89.8759 87.1399 90.3731 87.5014 90.6821 88.0056C90.9911 88.5098 91.0867 89.1155 90.948 89.6898L84.06 118.057C83.92 118.631 83.557 119.126 83.0508 119.434C82.5447 119.742 81.9366 119.837 81.36 119.699L59.8507 114.518C59.2744 114.378 58.7772 114.017 58.4682 113.512C58.1592 113.008 58.0635 112.403 58.2023 111.828Z" fill="#F2F2F2"/>
<path opacity="0.2" d="M62.4175 113.978C61.8412 113.838 61.344 113.477 61.0349 112.973C60.7259 112.469 60.6303 111.863 60.769 111.289C60.0842 101.167 62.0891 91.6462 67.657 82.9213C67.7508 82.5449 67.9428 82.1998 68.2136 81.9211L67.7903 81.8191C67.2137 81.6809 66.6056 81.7762 66.0994 82.084C65.5932 82.3917 65.2303 82.8869 65.0902 83.4609C59.5223 92.1858 57.5174 101.707 58.2023 111.828C58.0635 112.402 58.1591 113.008 58.4682 113.512C58.7772 114.016 59.2744 114.378 59.8507 114.517L81.3599 119.699C81.7423 119.789 82.1419 119.778 82.5184 119.665C82.8948 119.553 83.2346 119.343 83.5034 119.057L62.4175 113.978Z" fill="black"/>
<path d="M81.8921 102.036L67.4687 98.6039C67.2394 98.5492 67.0413 98.4059 66.9179 98.2057C66.7946 98.0055 66.7561 97.7647 66.8109 97.5363C66.8657 97.3078 67.0093 97.1103 67.2102 96.9873C67.411 96.8642 67.6528 96.8257 67.8822 96.88L82.3056 100.312C82.5344 100.368 82.7319 100.511 82.8548 100.711C82.9777 100.911 83.016 101.151 82.9613 101.379C82.9066 101.608 82.7633 101.805 82.5629 101.928C82.3625 102.051 82.1213 102.09 81.8921 102.036Z" fill="white"/>
<path d="M71.7757 94.632L68.6026 93.8769C68.3731 93.8227 68.1747 93.6801 68.0508 93.4803C67.9268 93.2805 67.8876 93.0399 67.9417 92.8113C67.9957 92.5827 68.1387 92.3849 68.3391 92.2612C68.5395 92.1375 68.7811 92.0981 69.0106 92.1516L69.0161 92.153L72.1892 92.9081C72.418 92.9633 72.6155 93.1067 72.7384 93.3067C72.8613 93.5067 72.8996 93.7471 72.8449 93.9752C72.7902 94.2033 72.6469 94.4005 72.4465 94.5236C72.2461 94.6467 72.0049 94.6857 71.7757 94.632Z" fill="white"/>
<path d="M80.0743 109.615L65.6509 106.183C65.422 106.128 65.2244 105.984 65.1014 105.784C64.9784 105.584 64.9401 105.344 64.9948 105.115C65.0495 104.887 65.1929 104.69 65.3933 104.567C65.5938 104.444 65.8351 104.405 66.0644 104.459L80.4878 107.891C80.6017 107.918 80.7092 107.966 80.8042 108.034C80.8992 108.102 80.9798 108.188 81.0414 108.287C81.103 108.386 81.1444 108.496 81.1632 108.611C81.1821 108.726 81.178 108.844 81.1512 108.957C81.1243 109.071 81.0753 109.178 81.0069 109.272C80.9386 109.367 80.8521 109.447 80.7526 109.508C80.6531 109.569 80.5425 109.61 80.427 109.629C80.3115 109.647 80.1935 109.643 80.0797 109.616L80.0743 109.615Z" fill="white"/>
<path d="M80.9832 105.826L66.5598 102.393C66.3302 102.339 66.1317 102.196 66.0079 101.996C65.8842 101.796 65.8453 101.555 65.8998 101.326C65.9544 101.098 66.0979 100.9 66.2989 100.777C66.4998 100.653 66.7416 100.615 66.9712 100.669L66.9733 100.669L81.3967 104.102C81.6256 104.157 81.8232 104.3 81.9462 104.5C82.0691 104.7 82.1074 104.941 82.0527 105.169C81.998 105.397 81.8547 105.594 81.6542 105.717C81.4537 105.84 81.2124 105.879 80.9832 105.826Z" fill="white"/>
<path d="M77.9341 88.0253C79.983 88.0253 81.644 86.371 81.644 84.3302C81.644 82.2894 79.983 80.635 77.9341 80.635C75.8851 80.635 74.2241 82.2894 74.2241 84.3302C74.2241 86.371 75.8851 88.0253 77.9341 88.0253Z" fill="#3F3D56"/>
<path d="M59.228 113.944C58.9254 113.777 58.6627 113.547 58.4582 113.269C58.2536 112.992 58.112 112.673 58.0432 112.336C57.9744 111.998 57.9801 111.65 58.0598 111.315C58.1394 110.979 58.2913 110.666 58.5047 110.395L52.7759 100.007L55.2711 97.7219L61.9847 110.109C62.4159 110.501 62.6878 111.037 62.7489 111.615C62.81 112.193 62.656 112.774 62.3162 113.246C61.9764 113.719 61.4744 114.051 60.9052 114.179C60.336 114.308 59.7393 114.224 59.228 113.944Z" fill="#FFB6B6"/>
<path d="M52.5367 67.9612L46.3751 67.369C46.0876 67.3414 45.7975 67.374 45.5234 67.4646C45.2494 67.5552 44.9973 67.7019 44.7835 67.8953C44.5697 68.0887 44.3989 68.3245 44.282 68.5875C44.1651 68.8505 44.1047 69.135 44.1047 69.4226V87.6855L55.376 108.27L60.0315 105.341L52.6807 87.2815L52.5367 67.9612Z" fill="#25BEF5"/>
<path d="M101.18 66.4791C102.609 56.4349 106.545 47.5318 113.802 40.1404C114.058 39.6076 114.516 39.1977 115.075 39.0007C115.634 38.8036 116.249 38.8355 116.784 39.0894L136.755 48.5835C137.29 48.8385 137.702 49.2945 137.9 49.8514C138.098 50.4082 138.066 51.0205 137.811 51.5539L125.189 77.8926C124.933 78.4254 124.475 78.8353 123.916 79.0324C123.357 79.2294 122.742 79.1975 122.207 78.9437L102.236 69.4495C101.701 69.1945 101.289 68.7385 101.091 68.1817C100.894 67.6248 100.926 67.0125 101.18 66.4791Z" fill="#F2F2F2"/>
<path opacity="0.2" d="M104.859 69.4495C104.324 69.1945 103.913 68.7385 103.715 68.1816C103.517 67.6248 103.549 67.0125 103.804 66.4791C105.232 56.4348 109.168 47.5318 116.425 40.1404C116.595 39.7914 116.855 39.4933 117.177 39.2762L116.784 39.0894C116.249 38.8355 115.634 38.8036 115.075 39.0007C114.516 39.1977 114.058 39.6076 113.802 40.1404C106.545 47.5318 102.609 56.4348 101.18 66.4791C100.926 67.0125 100.894 67.6248 101.091 68.1816C101.289 68.7385 101.701 69.1945 102.236 69.4495L122.207 78.9437C122.562 79.1111 122.956 79.182 123.347 79.1492C123.739 79.1164 124.115 78.981 124.437 78.7568L104.859 69.4495Z" fill="black"/>
<path d="M126.39 61.7713L112.989 55.4461C112.776 55.3455 112.612 55.1645 112.532 54.9432C112.453 54.7218 112.465 54.4781 112.566 54.2658C112.667 54.0534 112.849 53.8896 113.071 53.8106C113.293 53.7316 113.538 53.7438 113.751 53.8444L127.152 60.1696C127.364 60.2708 127.528 60.4517 127.607 60.6727C127.685 60.8937 127.673 61.1367 127.572 61.3486C127.471 61.5605 127.29 61.724 127.069 61.8032C126.847 61.8825 126.603 61.871 126.39 61.7713Z" fill="white"/>
<path d="M118.027 52.4458L115.079 51.0543C114.973 51.0048 114.878 50.9351 114.799 50.8491C114.72 50.763 114.659 50.6623 114.62 50.5528C114.58 50.4433 114.562 50.327 114.568 50.2107C114.573 50.0944 114.601 49.9802 114.651 49.8748C114.701 49.7694 114.771 49.6748 114.857 49.5965C114.944 49.5181 115.045 49.4574 115.155 49.418C115.265 49.3785 115.382 49.3611 115.499 49.3666C115.615 49.3721 115.73 49.4005 115.836 49.4502L115.841 49.4526L118.789 50.8441C119.002 50.9452 119.165 51.1261 119.244 51.3472C119.323 51.5682 119.311 51.8114 119.21 52.0234C119.109 52.2354 118.928 52.3989 118.706 52.4781C118.484 52.5573 118.24 52.5457 118.027 52.4458Z" fill="white"/>
<path d="M123.04 68.8127L109.639 62.4875C109.426 62.3864 109.263 62.2055 109.184 61.9844C109.105 61.7634 109.117 61.5202 109.218 61.3082C109.319 61.0962 109.5 60.9327 109.722 60.8535C109.944 60.7743 110.188 60.7859 110.401 60.8858L123.802 67.211C123.908 67.2605 124.002 67.3303 124.081 67.4163C124.16 67.5024 124.221 67.603 124.26 67.7125C124.3 67.822 124.318 67.9382 124.312 68.0544C124.307 68.1707 124.278 68.2847 124.229 68.3901C124.179 68.4954 124.109 68.5899 124.022 68.6683C123.936 68.7467 123.835 68.8073 123.725 68.8468C123.615 68.8862 123.498 68.9038 123.382 68.8983C123.265 68.8929 123.151 68.8646 123.045 68.8151L123.04 68.8127Z" fill="white"/>
<path d="M124.715 65.2921L111.314 58.9668C111.101 58.8664 110.936 58.6857 110.857 58.4644C110.777 58.2432 110.789 57.9995 110.89 57.787C110.991 57.5744 111.172 57.4105 111.394 57.3312C111.616 57.252 111.861 57.2638 112.074 57.3642L112.076 57.3651L125.477 63.6904C125.689 63.7915 125.853 63.9724 125.932 64.1934C126.011 64.4144 125.998 64.6575 125.897 64.8695C125.796 65.0814 125.615 65.2449 125.394 65.3241C125.172 65.4033 124.928 65.3918 124.715 65.2921Z" fill="white"/>
<path d="M126.189 47.3281C128.238 47.3281 129.899 45.6737 129.899 43.6329C129.899 41.5921 128.238 39.9377 126.189 39.9377C124.14 39.9377 122.479 41.5921 122.479 43.6329C122.479 45.6737 124.14 47.3281 126.189 47.3281Z" fill="#3F3D56"/>
<path d="M158.204 79.4912C154.18 70.7974 152.418 61.4279 153.652 51.1632C153.461 49.9691 154.13 48.7724 155.146 48.4882L173.362 43.4192C174.379 43.1377 175.358 43.876 175.551 45.0694L180.102 73.3974C180.293 74.5916 179.625 75.7882 178.608 76.0724L160.392 81.1414C159.376 81.4229 158.396 80.6847 158.204 79.4912Z" fill="#F2F2F2"/>
<path opacity="0.2" d="M162.166 79.5065C161.149 79.788 160.17 79.0498 159.977 77.8564C155.953 69.1626 154.191 59.7931 155.425 49.5284C155.367 49.1472 155.394 48.758 155.504 48.3884L155.146 48.4882C154.13 48.7724 153.461 49.969 153.652 51.1631C152.418 61.4278 154.18 70.7973 158.204 79.4911C158.396 80.6846 159.376 81.4228 160.392 81.1413L178.608 76.0724C178.955 75.9564 179.267 75.7549 179.514 75.4864C179.762 75.218 179.937 74.8915 180.023 74.5374L162.166 79.5065Z" fill="black"/>
<path d="M172.906 60.1243L160.706 63.5608C160.301 63.6741 159.911 63.3811 159.834 62.9061C159.79 62.6877 159.826 62.4609 159.934 62.266C160.042 62.0711 160.216 61.9207 160.425 61.8416L172.626 58.405C173.03 58.2927 173.42 58.5867 173.496 59.0618C173.539 59.2798 173.504 59.506 173.396 59.7004C173.288 59.8948 173.114 60.045 172.906 60.1243Z" fill="white"/>
<path d="M162.621 58.0906L159.937 58.8466C159.532 58.962 159.141 58.6709 159.062 58.1966C159.018 57.9779 159.053 57.7506 159.16 57.5551C159.268 57.3595 159.442 57.2084 159.651 57.1287L159.656 57.1274L162.34 56.3713C162.745 56.259 163.134 56.553 163.211 57.0281C163.254 57.2461 163.218 57.4723 163.11 57.6667C163.003 57.8611 162.829 58.0113 162.621 58.0906Z" fill="white"/>
<path d="M174.139 67.6826L161.939 71.1192C161.534 71.2315 161.144 70.9375 161.068 70.4624C161.025 70.2444 161.06 70.0182 161.168 69.8238C161.276 69.6294 161.45 69.4792 161.658 69.3999L173.859 65.9634C174.263 65.848 174.654 66.139 174.733 66.6134C174.777 66.8321 174.743 67.0594 174.635 67.2549C174.527 67.4505 174.353 67.6016 174.144 67.6813L174.139 67.6826Z" fill="white"/>
<path d="M173.523 63.9035L161.322 67.34C160.918 67.4545 160.527 67.1625 160.449 66.6879C160.405 66.4692 160.44 66.242 160.548 66.0466C160.656 65.8513 160.831 65.7006 161.04 65.6213L161.042 65.6208L173.242 62.1842C173.647 62.0718 174.036 62.3659 174.113 62.841C174.156 63.059 174.12 63.2851 174.012 63.4796C173.904 63.674 173.731 63.8241 173.523 63.9035Z" fill="white"/>
<path d="M166.831 46.553C167.094 44.5291 165.932 42.7114 164.235 42.4931C162.539 42.2748 160.951 43.7386 160.689 45.7625C160.426 47.7865 161.588 49.6042 163.285 49.8225C164.981 50.0408 166.569 48.577 166.831 46.553Z" fill="#3F3D56"/>
<path d="M156.736 158.876C156.942 158.884 157.144 158.828 157.317 158.717C157.489 158.606 157.623 158.445 157.701 158.255C157.778 158.066 157.795 157.857 157.75 157.657C157.704 157.458 157.598 157.277 157.446 157.14C157.42 157.04 157.401 156.968 157.375 156.868C157.566 156.37 157.903 155.939 158.342 155.632C158.78 155.325 159.301 155.156 159.837 155.146C160.373 155.136 160.9 155.285 161.35 155.575C161.8 155.866 162.153 156.283 162.363 156.774C163.577 159.531 165.14 162.383 164.406 165.44C169.351 154.734 167.508 141.493 159.962 132.45C157.889 131.338 156.199 129.343 155.742 127.013C156.765 127.348 158.03 126.509 157.252 125.445C156.916 125.039 156.576 124.636 156.24 124.23C160.076 120.081 164.756 126.501 160.543 132.092C161.955 133.822 163.182 135.695 164.204 137.679C163.952 135.564 164.208 133.42 164.95 131.423C165.704 129.561 167.135 127.985 168.393 126.369C169.923 124.401 173.119 125.272 173.351 127.749C171.927 128.231 171.761 130.29 173.398 130.556C173.014 135.172 170.03 139.439 165.885 141.501C167.464 145.787 168.108 150.358 167.775 154.911C168.459 149.587 174.175 148.243 178.158 146.091C178.412 145.926 178.708 145.838 179.011 145.837C179.313 145.837 179.61 145.924 179.863 146.089C180.117 146.253 180.317 146.488 180.44 146.764C180.562 147.04 180.601 147.345 180.552 147.643C180.002 147.872 179.475 148.155 178.981 148.488C178.749 148.646 178.573 148.872 178.475 149.134C178.377 149.397 178.363 149.683 178.435 149.953C178.507 150.224 178.661 150.466 178.876 150.645C179.092 150.825 179.357 150.935 179.637 150.958C177.667 155.954 172.481 159.345 167.122 159.377C166.628 161.612 165.903 163.789 164.957 165.875L157.003 165.95C156.974 165.862 156.947 165.772 156.921 165.684C157.658 165.723 158.396 165.672 159.121 165.532C157.151 163.253 155.633 162.095 156.736 158.876Z" fill="#84C383"/>
</g>
<defs>
<clipPath id="clip0_32_220">
<rect width="180.135" height="167" fill="white"/>
</clipPath>
</defs>
</svg>
