<svg width="185" height="171" viewBox="0 0 185 171" fill="none" xmlns="http://www.w3.org/2000/svg">
<g clip-path="url(#clip0_32_220)">
<path d="M177.728 20.5271H179.56C180.963 9.79692 170.166 1.64856 157.783 0.653809C162.646 1.76518 167.097 4.21895 170.625 7.73386C174.152 11.2488 176.614 15.6826 177.728 20.5271Z" fill="#F2F2F2"/>
<path d="M149.225 52.5415C148.189 52.5289 147.195 52.4941 146.246 52.437C147.231 52.5883 148.231 52.6234 149.225 52.5415Z" fill="#F2F2F2"/>
<path d="M126.177 26.3616C126.416 12.2278 137.723 0.725375 151.916 0.725375C153.865 0.519234 155.829 0.495286 157.783 0.653843C153.907 -0.222097 149.884 -0.217876 146.01 0.666194C142.137 1.55026 138.513 3.2915 135.407 5.76077C132.301 8.23005 129.793 11.364 128.069 14.9303C126.345 18.4965 125.45 22.4035 125.448 26.3616C125.448 39.7635 125.93 51.1975 146.246 52.437C135.953 50.8799 125.989 37.4598 126.177 26.3616Z" fill="#F2F2F2"/>
<path d="M177.425 26.7745C172.773 34.7019 154.48 40.5156 151.916 51.9982C151.043 52.2835 150.14 52.4658 149.225 52.5415C150.068 52.5518 150.938 52.5484 151.841 52.5278C166.297 52.5278 178.154 41.1171 178.378 26.7745L177.425 26.7745Z" fill="#F2F2F2"/>
<path d="M153.993 45.6259C150.61 38.3163 149.129 30.4385 150.166 21.808C150.006 20.804 150.568 19.7978 151.422 19.5589L166.738 15.2969C167.593 15.0602 168.416 15.6809 168.579 16.6844L172.405 40.5023C172.566 41.5063 172.004 42.5125 171.149 42.7514L155.833 47.0134C154.979 47.2501 154.155 46.6294 153.993 45.6259Z" fill="white"/>
<path d="M161.247 17.9318C161.468 16.23 160.491 14.7017 159.065 14.5182C157.638 14.3347 156.303 15.5654 156.083 17.2671C155.862 18.9689 156.839 20.4972 158.265 20.6807C159.691 20.8642 161.026 19.6335 161.247 17.9318Z" fill="#F2F2F2"/>
<path d="M133.239 33.9783C129.856 26.6687 128.375 18.7909 129.412 10.1604C129.252 9.15637 129.814 8.15024 130.668 7.91127L145.984 3.64933C146.839 3.41265 147.662 4.03334 147.824 5.03681L151.651 28.8548C151.812 29.8588 151.25 30.8649 150.395 31.1038L135.079 35.3658C134.224 35.6025 133.401 34.9818 133.239 33.9783Z" fill="white"/>
<path d="M140.493 6.28419C140.714 4.58246 139.737 3.05415 138.31 2.87062C136.884 2.68708 135.549 3.91783 135.328 5.61956C135.108 7.32129 136.085 8.84959 137.511 9.03312C138.937 9.21665 140.272 7.98592 140.493 6.28419Z" fill="#F2F2F2"/>
<path d="M154.202 113.112H0V113.612H154.202V113.112Z" fill="#3F3D56"/>
<path d="M62.7239 54.1367C62.542 53.5026 65.0851 59.3146 64.4801 59.3845C61.7246 59.6994 55.6189 61.1188 53.6997 61.8835C53.6132 61.8735 53.5268 61.8635 53.4429 61.851C53.237 61.8285 53.0362 61.796 52.8379 61.7586C48.3691 60.9164 44.9883 57.2604 44.8968 52.8473C44.8917 52.7848 44.8917 52.7198 44.8917 52.6574C44.8911 52.3527 44.9073 52.0482 44.94 51.7452C44.9821 51.3316 45.0543 50.9215 45.1561 50.5182L45.1459 50.5158C43.3665 48.8515 44.1164 45.7652 46.3839 44.4633C47.3691 43.899 48.4617 43.5458 49.5918 43.4262C49.8983 43.3931 50.2063 43.3764 50.5146 43.3762H53.4099C54.009 43.2477 54.6163 43.16 55.2274 43.1138H55.2325C61.0612 42.6715 65.6571 46.2101 65.2275 50.5158C65.225 50.5208 65.2199 50.5258 65.2174 50.5308C65.0928 50.7157 64.9835 50.8906 64.8869 51.058C64.7928 51.2155 64.714 51.3654 64.6454 51.5079C64.1141 52.6074 65.4798 53.991 64.5742 54.2492C63.3699 54.5927 67.7418 65.8818 62.9747 65.8818C65.2935 66.5385 63.2256 55.886 62.7239 54.1367Z" fill="#2F2E41"/>
<path d="M89.3205 163.256L93.0799 163.225L94.7436 148.446L89.1958 148.493L89.3205 163.256Z" fill="#FFB6B6"/>
<path d="M101.362 169.21C101.365 169.654 101.192 170.081 100.879 170.398C100.567 170.714 100.141 170.895 99.6955 170.899L92.2214 170.961L90.913 168.319L90.4324 170.975L87.6123 171L88.3244 161.53L89.3056 161.465L93.3076 161.19L94.5987 161.104L94.6214 163.784L100.625 167.84C100.85 167.992 101.035 168.196 101.163 168.435C101.291 168.673 101.359 168.94 101.362 169.21Z" fill="#2F2E41"/>
<path d="M94.0858 155.844C92.5905 155.664 88.817 155.345 88.817 155.345C88.817 155.345 87.0357 151.641 87.3242 150.489C87.6077 149.332 88.3152 149.097 87.6579 148.492C86.0572 142.6 86.3131 133.029 86.3131 133.029C86.3131 133.029 77.6973 128.873 68.9737 124.063C60.4458 119.357 51.815 114.027 51.0347 111.34C50.5197 109.419 50.1738 107.457 50.001 105.475C49.8705 104.176 49.7902 102.901 49.7401 101.759C49.6221 99.1455 49.6698 97.2138 49.6698 97.2138L60.5411 97.0338L67.7418 96.8689H68.4945V98.1184L70.3862 101.322C70.3862 101.322 73.6554 105.108 73.2715 105.46C72.8074 105.888 72.9479 106.267 74.5963 106.577C75.065 106.659 75.5425 106.679 76.0163 106.635C78.6783 106.432 79.7923 107.949 79.8575 108.282C80.3041 110.628 84.7826 115.726 88.9776 120.077H88.9801C92.8514 124.095 96.4794 127.474 96.4794 127.474L96.6851 131.784L97.651 151.938C97.651 151.938 95.8396 150.929 97.4579 153.105C99.0761 155.285 95.5812 156.022 94.0858 155.844Z" fill="#2F2E41"/>
<path d="M134.872 108.981L136.406 105.563L123.605 97.9092L121.34 102.954L134.872 108.981Z" fill="#FFB6B6"/>
<path d="M145.316 100.551C145.722 100.733 146.04 101.067 146.199 101.482C146.358 101.897 146.346 102.357 146.165 102.763L143.113 109.558L140.157 109.645L142.381 111.184L141.231 113.749L132.881 109.166L133.23 108.25L134.643 104.511L135.102 103.305L137.558 104.399L143.758 100.648C143.991 100.508 144.254 100.425 144.525 100.408C144.796 100.392 145.068 100.44 145.316 100.551Z" fill="#2F2E41"/>
<path d="M128.287 100.707C128.278 100.727 128.267 100.745 128.259 100.761C127.559 102.039 126.411 104.998 126.34 105.18C126.338 105.184 126.337 105.187 126.336 105.191C126.336 105.191 122.549 104.997 121.581 104.305C120.611 103.608 122.079 104.71 119.843 103.252C118.686 102.495 114.726 101.312 111.178 100.346C107.878 99.4467 104.937 98.7397 104.937 98.7397C104.937 98.7397 102.337 101.096 98.5709 104.353L98.5691 104.355C95.0709 107.373 90.563 111.168 86.1944 114.566C76.8415 117.306 66.9699 119.68 64.5021 118.347C62.7674 117.362 61.1221 116.229 59.585 114.959L62.1261 108.325L68.8465 101.315L75.9206 98.4524L78.688 97.3316L82.563 95.7654L103.543 87.2753L126.777 95.2907C126.777 95.2907 125.158 96.593 127.792 95.9061C130.39 95.2299 129.017 99.3368 128.287 100.707Z" fill="#2F2E41"/>
<path d="M54.9461 62.1334H62.473L63.6581 64.7388L68.6988 66.9758C69.3543 67.2672 69.932 67.708 70.3851 68.2626C70.8382 68.8171 71.1541 69.47 71.3074 70.1685C73.1224 78.4329 70.8265 80.15 70.7526 82.8748C70.5017 92.1209 69.2089 93.9601 69.3535 96.2426C69.3968 96.9257 69.8154 99.6267 71.1621 99.3724C72.5088 99.118 71.7829 100.186 72.1016 100.601C72.377 100.96 73.8253 100.484 72.9162 101.675C72.007 102.866 75.8937 106.115 73.5124 106.115C68.9963 106.115 59.9641 108.364 56.4515 108.364C52.939 108.364 50.2246 109.401 48.6738 109.364C47.7286 109.341 48.0241 104.951 48.4019 101.149C48.4874 100.288 50.147 100.311 48.6577 98.7148C47.1684 97.1188 48.9215 96.2894 48.9246 95.8693C48.928 95.4231 49.7689 94.299 48.7196 92.4603C47.6702 90.6216 48.6375 91.3824 48.5919 90.805C48.2407 86.3556 47.7373 80.6824 47.7373 80.6824L45.5185 74.4626C44.9514 72.8727 45.0264 71.1257 45.7277 69.5898C46.429 68.054 47.7017 66.8495 49.2775 66.2304L51.8802 65.2078L54.9461 62.1334Z" fill="#25BEF5"/>
<path d="M107.809 59.8393C107.641 60.1501 107.408 60.421 107.126 60.6333C106.843 60.8456 106.517 60.9941 106.171 61.0687C105.825 61.1433 105.467 61.1421 105.121 61.0653C104.776 60.9884 104.451 60.8377 104.17 60.6236L93.5667 66.6026L91.1853 64.088L103.831 57.0785C104.228 56.6336 104.775 56.3493 105.369 56.2794C105.962 56.2095 106.561 56.3588 107.051 56.6991C107.541 57.0395 107.889 57.5471 108.029 58.1258C108.168 58.7046 108.09 59.3142 107.809 59.8393Z" fill="#FFB6B6"/>
<path d="M60.0678 73.9524L59.9064 75.8777L81.0152 75.6075L102.027 63.8423L98.955 59.1332L80.4871 66.8671L67.3612 67.1323C65.514 67.1696 63.7462 67.8873 62.3992 69.1469C61.0522 70.4065 60.2216 72.1185 60.0678 73.9524Z" fill="#25BEF5"/>
<path d="M57.5205 60.7608C61.3064 60.7608 64.3755 57.704 64.3755 53.9332C64.3755 50.1623 61.3064 47.1055 57.5205 47.1055C53.7346 47.1055 50.6655 50.1623 50.6655 53.9332C50.6655 57.704 53.7346 60.7608 57.5205 60.7608Z" fill="#FFB6B6"/>
<path d="M65.2276 50.8881C65.1132 50.9481 65.0013 51.0031 64.8869 51.058C64.7675 51.1155 64.648 51.173 64.5285 51.2255C62.2331 52.2625 60.3648 52.3775 59.231 50.8881C59.2007 50.1044 59.024 49.3332 58.7099 48.6141C58.7654 49.4178 58.5527 50.2172 58.1049 50.8881H55.8222C53.4709 52.4424 52.2635 52.6049 53.8954 57.7078C54.3504 59.1297 56.1597 67.4037 55.4479 68.6307C55.242 68.6082 53.0362 61.796 52.838 61.7586C48.3692 60.9164 44.9884 57.2604 44.8969 52.8473C44.9019 52.6224 44.9172 52.3975 44.9401 52.1776C45.2345 51.7368 45.558 51.316 45.9085 50.9181C45.9068 49.7384 46.1791 48.5744 46.7042 47.517C47.3685 46.1774 48.4041 45.0553 49.6885 44.2834C50.454 43.9136 51.2522 43.615 52.0728 43.3912C52.0932 43.3862 52.111 43.3812 52.1313 43.3762C52.3829 43.3088 52.6397 43.2463 52.8964 43.1938C53.4268 43.0823 53.9632 43.0013 54.503 42.9514C54.5411 42.9489 54.5792 42.9464 54.6148 42.9464C54.8303 42.9469 55.0418 43.0047 55.2274 43.1138C55.23 43.1138 55.23 43.1163 55.2325 43.1163C55.3651 43.1935 55.4809 43.2963 55.5731 43.4187C55.7355 43.6246 55.8233 43.8791 55.8222 44.1409H58.3642C58.4583 44.1409 58.5523 44.1434 58.6464 44.1484C60.3429 44.2062 61.9568 44.8924 63.1721 46.0728C64.3874 47.2533 65.1168 48.8429 65.2174 50.5307C65.225 50.6507 65.2276 50.7681 65.2276 50.8881Z" fill="#2F2E41"/>
<path d="M48.1719 52.1376C50.6661 52.1376 52.688 50.1237 52.688 47.6395C52.688 45.1552 50.6661 43.1414 48.1719 43.1414C45.6777 43.1414 43.6558 45.1552 43.6558 47.6395C43.6558 50.1237 45.6777 52.1376 48.1719 52.1376Z" fill="#2F2E41"/>
<path d="M53.6917 44.1409C53.7779 46.6236 51.6697 48.639 49.1755 48.639C47.9778 48.639 46.8291 48.1651 45.9822 47.3215C45.1352 46.478 44.6594 45.3339 44.6594 44.1409C44.6594 41.6566 47.6801 41.6309 49.1755 39.6428C51.2911 36.8302 53.5754 40.7927 53.6917 44.1409Z" fill="#2F2E41"/>
<path d="M59.5964 114.507C58.8951 104.143 60.948 94.394 66.6493 85.4602C66.7927 84.8724 67.1644 84.3653 67.6827 84.0502C68.201 83.735 68.8236 83.6375 69.4141 83.779L91.4385 89.0843C92.0286 89.2271 92.5377 89.5973 92.8541 90.1135C93.1705 90.6298 93.2685 91.2499 93.1264 91.838L86.0734 120.885C85.93 121.472 85.5584 121.979 85.0401 122.295C84.5218 122.61 83.8991 122.707 83.3087 122.566L61.2843 117.261C60.6942 117.118 60.1851 116.748 59.8686 116.231C59.5522 115.715 59.4543 115.095 59.5964 114.507Z" fill="#F2F2F2"/>
<path opacity="0.2" d="M63.9125 116.708C63.3224 116.565 62.8133 116.195 62.4969 115.679C62.1804 115.162 62.0825 114.542 62.2246 113.954C61.5233 103.59 63.5762 93.8413 69.2775 84.9074C69.3736 84.522 69.5702 84.1687 69.8474 83.8833L69.414 83.7788C68.8236 83.6373 68.201 83.7349 67.6827 84.05C67.1643 84.3652 66.7927 84.8723 66.6493 85.46C60.948 94.3939 58.8951 104.143 59.5964 114.507C59.4543 115.095 59.5522 115.715 59.8686 116.231C60.1851 116.747 60.6942 117.118 61.2843 117.26L83.3087 122.566C83.7002 122.659 84.1094 122.647 84.4949 122.531C84.8803 122.416 85.2283 122.201 85.5035 121.909L63.9125 116.708Z" fill="black"/>
<path d="M83.8537 104.48L69.0848 100.966C68.85 100.91 68.6471 100.763 68.5208 100.558C68.3945 100.353 68.3551 100.106 68.4112 99.8725C68.4673 99.6386 68.6143 99.4364 68.82 99.3104C69.0257 99.1844 69.2732 99.1449 69.5082 99.2005L84.2771 102.715C84.5114 102.772 84.7136 102.918 84.8394 103.123C84.9652 103.328 85.0044 103.574 84.9484 103.808C84.8924 104.041 84.7457 104.243 84.5405 104.369C84.3353 104.495 84.0883 104.535 83.8537 104.48Z" fill="white"/>
<path d="M73.4949 96.8986L70.2458 96.1254C70.0109 96.07 69.8077 95.9239 69.6808 95.7193C69.5539 95.5148 69.5137 95.2684 69.5691 95.0343C69.6244 94.8003 69.7708 94.5977 69.976 94.471C70.1813 94.3444 70.4286 94.304 70.6636 94.3589L70.6692 94.3602L73.9184 95.1334C74.1527 95.19 74.3549 95.3368 74.4807 95.5416C74.6065 95.7464 74.6457 95.9926 74.5897 96.2261C74.5337 96.4597 74.387 96.6616 74.1818 96.7876C73.9766 96.9137 73.7296 96.9536 73.4949 96.8986Z" fill="white"/>
<path d="M81.9922 112.24L67.2233 108.726C66.9889 108.67 66.7866 108.523 66.6607 108.318C66.5348 108.113 66.4955 107.867 66.5516 107.633C66.6076 107.4 66.7543 107.198 66.9596 107.072C67.1649 106.946 67.412 106.906 67.6467 106.961L82.4156 110.475C82.5322 110.502 82.6423 110.552 82.7396 110.622C82.8369 110.691 82.9194 110.779 82.9825 110.881C83.0456 110.982 83.088 111.095 83.1072 111.213C83.1265 111.33 83.1223 111.451 83.0949 111.567C83.0674 111.683 83.0172 111.793 82.9472 111.889C82.8772 111.986 82.7887 112.068 82.6868 112.131C82.5849 112.194 82.4716 112.236 82.3534 112.255C82.2351 112.274 82.1143 112.269 81.9978 112.242L81.9922 112.24Z" fill="white"/>
<path d="M82.9229 108.36L68.154 104.846C67.919 104.79 67.7157 104.644 67.589 104.439C67.4622 104.234 67.4224 103.987 67.4783 103.753C67.5342 103.519 67.6811 103.317 67.8869 103.19C68.0926 103.064 68.3403 103.024 68.5753 103.08L68.5774 103.081L83.3463 106.595C83.5807 106.652 83.783 106.798 83.909 107.003C84.0349 107.208 84.0741 107.454 84.0181 107.688C83.962 107.922 83.8153 108.123 83.61 108.25C83.4047 108.376 83.1576 108.415 82.9229 108.36Z" fill="white"/>
<path d="M79.8008 90.1337C81.8988 90.1337 83.5996 88.4397 83.5996 86.3501C83.5996 84.2604 81.8988 82.5664 79.8008 82.5664C77.7027 82.5664 76.002 84.2604 76.002 86.3501C76.002 88.4397 77.7027 90.1337 79.8008 90.1337Z" fill="#3F3D56"/>
<path d="M60.6466 116.673C60.3367 116.502 60.0678 116.267 59.8583 115.982C59.6488 115.698 59.5039 115.372 59.4334 115.026C59.363 114.681 59.3688 114.324 59.4504 113.981C59.532 113.638 59.6874 113.316 59.906 113.039L54.0399 102.402L56.5949 100.062L63.4694 112.747C63.9108 113.148 64.1892 113.696 64.2518 114.288C64.3144 114.88 64.1567 115.475 63.8088 115.959C63.4609 116.443 62.9468 116.783 62.364 116.914C61.7811 117.046 61.1701 116.96 60.6466 116.673Z" fill="#FFB6B6"/>
<path d="M53.7951 69.589L47.4858 68.9827C47.1915 68.9544 46.8945 68.9877 46.6138 69.0805C46.3332 69.1733 46.0751 69.3235 45.8562 69.5216C45.6373 69.7196 45.4624 69.961 45.3427 70.2303C45.223 70.4996 45.1611 70.7909 45.1611 71.0854V89.7857L56.7023 110.863L61.4693 107.864L53.9425 89.3721L53.7951 69.589Z" fill="#25BEF5"/>
<path d="M103.604 68.0715C105.067 57.7867 109.097 48.6704 116.528 41.1019C116.79 40.5563 117.259 40.1366 117.831 39.9349C118.404 39.7331 119.033 39.7658 119.582 40.0257L140.031 49.7472C140.579 50.0084 141 50.4753 141.203 51.0455C141.405 51.6157 141.372 52.2427 141.111 52.7888L128.188 79.7584C127.925 80.304 127.457 80.7237 126.884 80.9254C126.312 81.1272 125.682 81.0945 125.134 80.8346L104.684 71.1131C104.137 70.8519 103.715 70.385 103.513 69.8148C103.31 69.2446 103.343 68.6176 103.604 68.0715Z" fill="#F2F2F2"/>
<path opacity="0.2" d="M107.371 71.1129C106.823 70.8518 106.401 70.3849 106.199 69.8147C105.996 69.2444 106.029 68.6175 106.29 68.0713C107.753 57.7865 111.783 48.6702 119.214 41.1017C119.388 40.7444 119.653 40.4392 119.984 40.2169L119.582 40.0256C119.033 39.7657 118.404 39.733 117.831 39.9348C117.259 40.1365 116.79 40.5562 116.528 41.1017C109.097 48.6702 105.067 57.7865 103.604 68.0713C103.343 68.6175 103.31 69.2445 103.513 69.8147C103.715 70.3849 104.137 70.8518 104.684 71.1129L125.134 80.8345C125.498 81.0059 125.9 81.0785 126.302 81.0449C126.703 81.0113 127.088 80.8727 127.418 80.6431L107.371 71.1129Z" fill="black"/>
<path d="M129.417 63.2508L115.695 56.7741C115.477 56.671 115.309 56.4858 115.228 56.2592C115.146 56.0325 115.159 55.783 115.262 55.5655C115.366 55.348 115.552 55.1804 115.779 55.0994C116.007 55.0185 116.257 55.031 116.476 55.134L130.198 61.6108C130.415 61.7144 130.582 61.8996 130.663 62.1259C130.744 62.3522 130.731 62.6011 130.628 62.818C130.524 63.035 130.339 63.2024 130.112 63.2835C129.885 63.3646 129.635 63.3529 129.417 63.2508Z" fill="white"/>
<path d="M120.854 53.702L117.835 52.2771C117.727 52.2265 117.629 52.1551 117.549 52.067C117.468 51.9789 117.406 51.8758 117.365 51.7636C117.324 51.6515 117.306 51.5324 117.312 51.4133C117.317 51.2942 117.346 51.1773 117.397 51.0694C117.448 50.9615 117.52 50.8646 117.609 50.7844C117.697 50.7041 117.801 50.642 117.913 50.6016C118.026 50.5612 118.146 50.5433 118.265 50.549C118.385 50.5547 118.502 50.5837 118.61 50.6346L118.615 50.637L121.634 52.0619C121.852 52.1654 122.019 52.3506 122.1 52.577C122.181 52.8033 122.168 53.0523 122.065 53.2694C121.962 53.4865 121.776 53.6539 121.549 53.735C121.322 53.8161 121.072 53.8042 120.854 53.702Z" fill="white"/>
<path d="M125.987 70.461L112.265 63.9843C112.047 63.8808 111.88 63.6956 111.799 63.4692C111.718 63.2429 111.731 62.9938 111.834 62.7768C111.938 62.5597 112.123 62.3923 112.35 62.3112C112.577 62.2301 112.827 62.242 113.045 62.3442L126.767 68.821C126.875 68.8717 126.973 68.9431 127.053 69.0312C127.134 69.1193 127.196 69.2224 127.237 69.3345C127.277 69.4466 127.295 69.5655 127.29 69.6846C127.284 69.8036 127.255 69.9204 127.204 70.0282C127.153 70.1361 127.082 70.2329 126.993 70.3131C126.905 70.3934 126.801 70.4555 126.689 70.4959C126.576 70.5363 126.457 70.5542 126.337 70.5487C126.218 70.5431 126.1 70.5142 125.992 70.4635L125.987 70.461Z" fill="white"/>
<path d="M127.702 66.8559L113.98 60.3792C113.762 60.2764 113.593 60.0913 113.512 59.8648C113.43 59.6382 113.443 59.3887 113.546 59.1711C113.649 58.9535 113.835 58.7856 114.062 58.7044C114.29 58.6232 114.54 58.6354 114.759 58.7382L114.761 58.7391L128.482 65.2159C128.7 65.3194 128.867 65.5047 128.948 65.731C129.029 65.9573 129.016 66.2062 128.913 66.4232C128.81 66.6402 128.624 66.8076 128.397 66.8887C128.17 66.9698 127.92 66.9581 127.702 66.8559Z" fill="white"/>
<path d="M129.211 48.4617C131.309 48.4617 133.01 46.7677 133.01 44.6781C133.01 42.5884 131.309 40.8944 129.211 40.8944C127.113 40.8944 125.412 42.5884 125.412 44.6781C125.412 46.7677 127.113 48.4617 129.211 48.4617Z" fill="#3F3D56"/>
<path d="M161.993 81.3952C157.873 72.4932 156.069 62.8993 157.332 52.3887C157.137 51.166 157.822 49.9406 158.862 49.6496L177.515 44.4592C178.556 44.171 179.558 44.9269 179.756 46.149L184.416 75.1555C184.611 76.3782 183.927 77.6035 182.887 77.8945L164.234 83.0849C163.193 83.3731 162.191 82.6172 161.993 81.3952Z" fill="#F2F2F2"/>
<path opacity="0.2" d="M166.05 81.411C165.009 81.6992 164.006 80.9433 163.809 79.7212C159.689 70.8192 157.884 61.2253 159.148 50.7147C159.088 50.3245 159.116 49.9259 159.229 49.5475L158.862 49.6496C157.821 49.9406 157.137 51.1659 157.332 52.3886C156.069 62.8992 157.873 72.4931 161.993 81.3951C162.19 82.6172 163.193 83.3731 164.234 83.0848L182.886 77.8945C183.242 77.7758 183.561 77.5694 183.814 77.2945C184.067 77.0197 184.247 76.6853 184.335 76.3228L166.05 81.411Z" fill="black"/>
<path d="M177.048 61.5645L164.555 65.0833C164.141 65.1994 163.741 64.8993 163.662 64.413C163.617 64.1893 163.654 63.9571 163.764 63.7575C163.875 63.5579 164.054 63.404 164.268 63.3229L176.76 59.8041C177.175 59.689 177.574 59.9901 177.652 60.4766C177.696 60.6998 177.66 60.9313 177.549 61.1304C177.439 61.3295 177.261 61.4833 177.048 61.5645Z" fill="white"/>
<path d="M166.516 59.482L163.767 60.2561C163.354 60.3742 162.953 60.0762 162.872 59.5905C162.827 59.3666 162.862 59.1338 162.972 58.9336C163.083 58.7334 163.261 58.5787 163.475 58.497L163.48 58.4957L166.228 57.7215C166.643 57.6065 167.042 57.9076 167.12 58.3941C167.164 58.6172 167.128 58.8488 167.017 59.0479C166.907 59.247 166.729 59.4007 166.516 59.482Z" fill="white"/>
<path d="M178.31 69.3037L165.817 72.8226C165.403 72.9377 165.004 72.6366 164.926 72.1501C164.882 71.9269 164.918 71.6953 165.029 71.4962C165.139 71.2971 165.317 71.1434 165.53 71.0622L178.023 67.5433C178.437 67.4252 178.837 67.7232 178.918 68.2089C178.964 68.4328 178.928 68.6656 178.818 68.8658C178.707 69.066 178.529 69.2207 178.315 69.3024L178.31 69.3037Z" fill="white"/>
<path d="M177.679 65.4341L165.186 68.953C164.772 69.0702 164.372 68.7712 164.292 68.2852C164.247 68.0613 164.283 67.8286 164.393 67.6286C164.504 67.4286 164.683 67.2742 164.897 67.193L164.899 67.1925L177.392 63.6737C177.806 63.5586 178.205 63.8597 178.283 64.3462C178.327 64.5694 178.291 64.801 178.18 65.0001C178.07 65.1991 177.892 65.3529 177.679 65.4341Z" fill="white"/>
<path d="M170.827 47.6681C171.096 45.5957 169.906 43.7345 168.169 43.511C166.432 43.2874 164.806 44.7863 164.538 46.8587C164.269 48.9312 165.459 50.7924 167.196 51.0159C168.932 51.2394 170.558 49.7406 170.827 47.6681Z" fill="#3F3D56"/>
<path d="M160.49 162.682C160.701 162.689 160.908 162.632 161.085 162.519C161.261 162.405 161.399 162.24 161.478 162.046C161.557 161.851 161.575 161.638 161.528 161.433C161.481 161.229 161.373 161.044 161.217 160.903C161.19 160.801 161.171 160.728 161.144 160.626C161.34 160.115 161.685 159.674 162.134 159.36C162.583 159.046 163.117 158.872 163.665 158.862C164.214 158.851 164.753 159.005 165.214 159.302C165.675 159.599 166.036 160.026 166.252 160.529C167.495 163.352 169.096 166.272 168.343 169.402C173.407 158.44 171.52 144.882 163.793 135.622C161.671 134.484 159.94 132.441 159.472 130.055C160.52 130.398 161.815 129.539 161.019 128.45C160.674 128.034 160.326 127.622 159.982 127.206C163.91 122.957 168.702 129.531 164.388 135.256C165.834 137.028 167.091 138.945 168.136 140.977C167.879 138.811 168.141 136.615 168.901 134.57C169.673 132.664 171.138 131.05 172.427 129.396C173.993 127.381 177.266 128.273 177.503 130.809C176.044 131.302 175.874 133.41 177.551 133.683C177.158 138.409 174.103 142.779 169.858 144.89C171.475 149.278 172.135 153.959 171.793 158.622C172.494 153.17 178.347 151.793 182.426 149.59C182.685 149.421 182.988 149.331 183.298 149.33C183.608 149.33 183.912 149.419 184.171 149.588C184.431 149.756 184.636 149.996 184.761 150.279C184.887 150.561 184.927 150.874 184.877 151.179C184.313 151.414 183.774 151.703 183.268 152.044C183.031 152.206 182.85 152.438 182.75 152.706C182.65 152.975 182.635 153.268 182.709 153.545C182.783 153.822 182.94 154.069 183.161 154.254C183.381 154.438 183.653 154.55 183.94 154.574C181.922 159.689 176.612 163.162 171.124 163.195C170.619 165.483 169.876 167.712 168.908 169.848L160.764 169.925C160.734 169.835 160.707 169.742 160.679 169.652C161.434 169.692 162.19 169.64 162.932 169.497C160.915 167.163 159.361 165.977 160.49 162.682Z" fill="#84C383"/>
</g>
<defs>
<clipPath id="clip0_32_220">
<rect width="184.449" height="171" fill="white"/>
</clipPath>
</defs>
</svg>
