<svg width="238" height="150" viewBox="0 0 238 150" fill="none" xmlns="http://www.w3.org/2000/svg">
<g clip-path="url(#clip0_32_149)">
<path d="M89.9491 23.6174C89.7855 23.8282 89.5594 23.9818 89.3032 24.0565C89.047 24.1311 88.7737 24.1228 88.5224 24.0329C88.446 24.0103 88.371 23.983 88.2979 23.9511C88.3804 23.0698 88.3395 22.1813 88.1765 21.3113C88.1124 22.0591 87.9294 22.792 87.6342 23.4822C87.3936 23.2411 87.1967 22.9602 87.0522 22.6519C86.7829 22.014 86.6045 21.3415 86.5221 20.6541C86.1237 18.312 85.7307 15.8755 86.3807 13.5867C87.3327 10.2431 90.335 7.8395 91.589 4.5955L92.2068 4.04138C93.2643 5.84067 93.3112 8.0765 92.8801 10.1168C92.4513 12.1611 91.5872 14.0798 90.904 16.0512C90.2209 18.0227 89.7091 20.1198 90.026 22.1827C90.0989 22.6684 90.21 23.2023 89.9491 23.6174Z" fill="#2F2E41"/>
<path d="M76.2187 51.9087L72.1926 70.3069L89.7779 76.0295L87.192 51.9087H76.2187Z" fill="#FFB6B6"/>
<path d="M200.312 149.548H208.28V113.047C208.27 103.627 204.52 94.5959 197.853 87.9349C191.186 81.2739 182.147 77.527 172.719 77.5164H98.6597C89.2314 77.527 80.1923 81.2739 73.5255 87.9349C66.8587 94.5959 63.1087 103.627 63.098 113.047V149.548H71.0667V124.612C71.0775 115.104 74.8624 105.989 81.5912 99.2661C88.32 92.5431 97.4432 88.7615 106.959 88.7507H164.419C173.935 88.7615 183.058 92.5431 189.787 99.2661C196.516 105.989 200.301 115.104 200.312 124.612V149.548Z" fill="#E6E6E6"/>
<path d="M103.478 130.453L94.985 127.884C94.4327 125.616 94.1542 123.291 94.1553 120.957C94.1593 120.43 94.3135 119.915 94.5998 119.472C94.8861 119.029 95.2927 118.677 95.772 118.457C96.2513 118.237 96.7835 118.157 97.3063 118.228C97.829 118.299 98.3208 118.517 98.7241 118.857C103.279 122.761 109.951 124.844 114.257 129.292C116.039 131.162 117.377 133.408 118.172 135.864C118.967 138.321 119.199 140.924 118.85 143.482L120.709 149.49C116.548 149.19 112.502 147.992 108.85 145.979C105.197 143.967 102.025 141.187 99.5509 137.831C98.1818 135.935 97.0572 133.874 96.2035 131.697C99.8055 131.288 103.478 130.453 103.478 130.453Z" fill="#84C383"/>
<path d="M125.612 140.291L129.944 138.98C129.949 138.957 129.955 138.934 129.96 138.911C130.08 138.382 130.042 137.829 129.851 137.321C129.66 136.813 129.324 136.372 128.885 136.052C128.446 135.733 127.923 135.549 127.381 135.523C126.838 135.497 126.3 135.63 125.832 135.907C123.866 137.074 121.682 138.079 120.114 139.699C119.205 140.652 118.523 141.798 118.117 143.051C117.712 144.303 117.594 145.631 117.772 146.936L116.824 150C118.946 149.847 121.009 149.236 122.872 148.21C124.735 147.183 126.353 145.765 127.615 144.054C128.313 143.086 128.887 142.035 129.322 140.925C127.485 140.717 125.612 140.291 125.612 140.291Z" fill="#84C383"/>
<path d="M160.676 50.5975H143.808C143.569 50.5979 143.34 50.6929 143.172 50.8617C143.003 51.0305 142.909 51.2593 142.909 51.4977V78.1211H161.577V51.4977C161.577 51.3795 161.553 51.2624 161.508 51.1532C161.463 51.0439 161.397 50.9447 161.313 50.8611C161.229 50.7774 161.13 50.7111 161.021 50.6659C160.911 50.6207 160.794 50.5975 160.676 50.5975ZM152.298 65.7246C151.771 65.7222 151.266 65.5117 150.893 65.139C150.52 64.7663 150.309 64.2616 150.307 63.7345V60.6638C150.307 60.1364 150.517 59.6309 150.891 59.2582C151.264 58.8855 151.771 58.6762 152.298 58.6762C152.826 58.6762 153.332 58.8855 153.706 59.2582C154.079 59.6309 154.29 60.1364 154.29 60.6638V63.7345C154.288 64.2616 154.077 64.7663 153.704 65.139C153.331 65.5117 152.826 65.7222 152.298 65.7246Z" fill="#3F3D56"/>
<path d="M188.608 9.04871H116.503C115.884 9.04969 115.29 9.29601 114.852 9.73367C114.414 10.1713 114.167 10.7646 114.166 11.3836V59.9976C114.167 60.6167 114.413 61.2103 114.851 61.648C115.289 62.0857 115.883 62.3319 116.503 62.3325H188.608C189.227 62.3319 189.821 62.0857 190.26 61.648C190.698 61.2103 190.944 60.6167 190.945 59.9976V11.3836C190.944 10.7646 190.697 10.1713 190.259 9.73367C189.821 9.29601 189.227 9.04969 188.608 9.04871Z" fill="#3F3D56"/>
<path d="M188.006 10.7352H117.106C116.774 10.7359 116.456 10.8681 116.222 11.1027C115.987 11.3373 115.856 11.6551 115.856 11.9865V59.3956C115.856 59.7266 115.988 60.0439 116.222 60.2779C116.457 60.512 116.774 60.6437 117.106 60.6443H188.006C188.337 60.6437 188.655 60.512 188.889 60.2779C189.123 60.0439 189.255 59.7266 189.256 59.3956V11.9865C189.256 11.6551 189.124 11.3373 188.89 11.1027C188.656 10.8681 188.338 10.7359 188.006 10.7352Z" fill="white"/>
<path d="M142.851 77.2695V79.8382C142.851 79.9713 142.904 80.0988 142.999 80.1929C143.093 80.287 143.22 80.34 143.354 80.3403H161.132C161.265 80.3396 161.393 80.2865 161.487 80.1925C161.581 80.0985 161.634 79.9711 161.635 79.8382V77.2695H142.851Z" fill="#3F3D56"/>
<path d="M174.196 81.2342H132.014C131.899 81.2342 131.785 81.2084 131.68 81.1588C131.576 81.1092 131.484 81.037 131.411 80.9474C131.339 80.8578 131.287 80.7531 131.26 80.641C131.233 80.5288 131.231 80.4121 131.255 80.2992L131.909 77.1933C131.946 77.0195 132.042 76.8638 132.18 76.7518C132.318 76.6398 132.491 76.5784 132.668 76.5778H173.541C173.719 76.5784 173.892 76.6398 174.03 76.7518C174.168 76.8637 174.263 77.0195 174.301 77.1933L174.955 80.2992C174.979 80.4121 174.977 80.5288 174.95 80.641C174.923 80.7531 174.871 80.8578 174.798 80.9474C174.726 81.037 174.634 81.1092 174.53 81.1588C174.425 81.2084 174.311 81.2342 174.196 81.2342Z" fill="#3F3D56"/>
<path d="M134.106 77.137H133.129C133.04 77.137 132.968 77.2092 132.968 77.2983V77.7545C132.968 77.8436 133.04 77.9158 133.129 77.9158H134.106C134.195 77.9158 134.267 77.8436 134.267 77.7545V77.2983C134.267 77.2092 134.195 77.137 134.106 77.137Z" fill="#E6E6E6"/>
<path d="M136.704 77.137H135.728C135.638 77.137 135.566 77.2092 135.566 77.2983V77.7545C135.566 77.8436 135.638 77.9158 135.728 77.9158H136.704C136.793 77.9158 136.865 77.8436 136.865 77.7545V77.2983C136.865 77.2092 136.793 77.137 136.704 77.137Z" fill="#E6E6E6"/>
<path d="M139.302 77.137H138.326C138.237 77.137 138.164 77.2092 138.164 77.2983V77.7545C138.164 77.8436 138.237 77.9158 138.326 77.9158H139.302C139.391 77.9158 139.464 77.8436 139.464 77.7545V77.2983C139.464 77.2092 139.391 77.137 139.302 77.137Z" fill="#E6E6E6"/>
<path d="M141.901 77.137H140.924C140.835 77.137 140.763 77.2092 140.763 77.2983V77.7545C140.763 77.8436 140.835 77.9158 140.924 77.9158H141.901C141.99 77.9158 142.062 77.8436 142.062 77.7545V77.2983C142.062 77.2092 141.99 77.137 141.901 77.137Z" fill="#E6E6E6"/>
<path d="M144.499 77.137H143.523C143.433 77.137 143.361 77.2092 143.361 77.2983V77.7545C143.361 77.8436 143.433 77.9158 143.523 77.9158H144.499C144.588 77.9158 144.66 77.8436 144.66 77.7545V77.2983C144.66 77.2092 144.588 77.137 144.499 77.137Z" fill="#E6E6E6"/>
<path d="M147.097 77.137H146.121C146.032 77.137 145.959 77.2092 145.959 77.2983V77.7545C145.959 77.8436 146.032 77.9158 146.121 77.9158H147.097C147.186 77.9158 147.259 77.8436 147.259 77.7545V77.2983C147.259 77.2092 147.186 77.137 147.097 77.137Z" fill="#E6E6E6"/>
<path d="M149.695 77.137H148.719C148.63 77.137 148.558 77.2092 148.558 77.2983V77.7545C148.558 77.8436 148.63 77.9158 148.719 77.9158H149.695C149.785 77.9158 149.857 77.8436 149.857 77.7545V77.2983C149.857 77.2092 149.785 77.137 149.695 77.137Z" fill="#E6E6E6"/>
<path d="M152.294 77.137H151.318C151.228 77.137 151.156 77.2092 151.156 77.2983V77.7545C151.156 77.8436 151.228 77.9158 151.318 77.9158H152.294C152.383 77.9158 152.455 77.8436 152.455 77.7545V77.2983C152.455 77.2092 152.383 77.137 152.294 77.137Z" fill="#E6E6E6"/>
<path d="M154.892 77.137H153.916C153.827 77.137 153.754 77.2092 153.754 77.2983V77.7545C153.754 77.8436 153.827 77.9158 153.916 77.9158H154.892C154.981 77.9158 155.054 77.8436 155.054 77.7545V77.2983C155.054 77.2092 154.981 77.137 154.892 77.137Z" fill="#E6E6E6"/>
<path d="M157.49 77.137H156.514C156.425 77.137 156.353 77.2092 156.353 77.2983V77.7545C156.353 77.8436 156.425 77.9158 156.514 77.9158H157.49C157.58 77.9158 157.652 77.8436 157.652 77.7545V77.2983C157.652 77.2092 157.58 77.137 157.49 77.137Z" fill="#E6E6E6"/>
<path d="M160.089 77.137H159.112C159.023 77.137 158.951 77.2092 158.951 77.2983V77.7545C158.951 77.8436 159.023 77.9158 159.112 77.9158H160.089C160.178 77.9158 160.25 77.8436 160.25 77.7545V77.2983C160.25 77.2092 160.178 77.137 160.089 77.137Z" fill="#E6E6E6"/>
<path d="M162.687 77.137H161.711C161.622 77.137 161.549 77.2092 161.549 77.2983V77.7545C161.549 77.8436 161.622 77.9158 161.711 77.9158H162.687C162.776 77.9158 162.848 77.8436 162.848 77.7545V77.2983C162.848 77.2092 162.776 77.137 162.687 77.137Z" fill="#E6E6E6"/>
<path d="M165.285 77.137H164.309C164.22 77.137 164.148 77.2092 164.148 77.2983V77.7545C164.148 77.8436 164.22 77.9158 164.309 77.9158H165.285C165.375 77.9158 165.447 77.8436 165.447 77.7545V77.2983C165.447 77.2092 165.375 77.137 165.285 77.137Z" fill="#E6E6E6"/>
<path d="M167.884 77.137H166.908C166.818 77.137 166.746 77.2092 166.746 77.2983V77.7545C166.746 77.8436 166.818 77.9158 166.908 77.9158H167.884C167.973 77.9158 168.045 77.8436 168.045 77.7545V77.2983C168.045 77.2092 167.973 77.137 167.884 77.137Z" fill="#E6E6E6"/>
<path d="M170.482 77.137H169.506C169.417 77.137 169.344 77.2092 169.344 77.2983V77.7545C169.344 77.8436 169.417 77.9158 169.506 77.9158H170.482C170.571 77.9158 170.644 77.8436 170.644 77.7545V77.2983C170.644 77.2092 170.571 77.137 170.482 77.137Z" fill="#E6E6E6"/>
<path d="M173.08 77.137H172.104C172.015 77.137 171.943 77.2092 171.943 77.2983V77.7545C171.943 77.8436 172.015 77.9158 172.104 77.9158H173.08C173.17 77.9158 173.242 77.8436 173.242 77.7545V77.2983C173.242 77.2092 173.17 77.137 173.08 77.137Z" fill="#E6E6E6"/>
<path d="M134.075 78.4351H133.099C133.009 78.4351 132.937 78.5073 132.937 78.5964V79.0526C132.937 79.1417 133.009 79.2139 133.099 79.2139H134.075C134.164 79.2139 134.236 79.1417 134.236 79.0526V78.5964C134.236 78.5073 134.164 78.4351 134.075 78.4351Z" fill="#E6E6E6"/>
<path d="M136.673 78.4351H135.697C135.608 78.4351 135.535 78.5073 135.535 78.5964V79.0526C135.535 79.1417 135.608 79.2139 135.697 79.2139H136.673C136.762 79.2139 136.835 79.1417 136.835 79.0526V78.5964C136.835 78.5073 136.762 78.4351 136.673 78.4351Z" fill="#E6E6E6"/>
<path d="M139.272 78.4351H138.295C138.206 78.4351 138.134 78.5073 138.134 78.5964V79.0526C138.134 79.1417 138.206 79.2139 138.295 79.2139H139.272C139.361 79.2139 139.433 79.1417 139.433 79.0526V78.5964C139.433 78.5073 139.361 78.4351 139.272 78.4351Z" fill="#E6E6E6"/>
<path d="M141.87 78.4351H140.894C140.804 78.4351 140.732 78.5073 140.732 78.5964V79.0526C140.732 79.1417 140.804 79.2139 140.894 79.2139H141.87C141.959 79.2139 142.031 79.1417 142.031 79.0526V78.5964C142.031 78.5073 141.959 78.4351 141.87 78.4351Z" fill="#E6E6E6"/>
<path d="M144.468 78.4351H143.492C143.403 78.4351 143.33 78.5073 143.33 78.5964V79.0526C143.33 79.1417 143.403 79.2139 143.492 79.2139H144.468C144.557 79.2139 144.63 79.1417 144.63 79.0526V78.5964C144.63 78.5073 144.557 78.4351 144.468 78.4351Z" fill="#E6E6E6"/>
<path d="M147.066 78.4351H146.09C146.001 78.4351 145.929 78.5073 145.929 78.5964V79.0526C145.929 79.1417 146.001 79.2139 146.09 79.2139H147.066C147.156 79.2139 147.228 79.1417 147.228 79.0526V78.5964C147.228 78.5073 147.156 78.4351 147.066 78.4351Z" fill="#E6E6E6"/>
<path d="M149.665 78.4351H148.689C148.599 78.4351 148.527 78.5073 148.527 78.5964V79.0526C148.527 79.1417 148.599 79.2139 148.689 79.2139H149.665C149.754 79.2139 149.826 79.1417 149.826 79.0526V78.5964C149.826 78.5073 149.754 78.4351 149.665 78.4351Z" fill="#E6E6E6"/>
<path d="M152.263 78.4351H151.287C151.198 78.4351 151.125 78.5073 151.125 78.5964V79.0526C151.125 79.1417 151.198 79.2139 151.287 79.2139H152.263C152.352 79.2139 152.425 79.1417 152.425 79.0526V78.5964C152.425 78.5073 152.352 78.4351 152.263 78.4351Z" fill="#E6E6E6"/>
<path d="M154.861 78.4351H153.885C153.796 78.4351 153.724 78.5073 153.724 78.5964V79.0526C153.724 79.1417 153.796 79.2139 153.885 79.2139H154.861C154.951 79.2139 155.023 79.1417 155.023 79.0526V78.5964C155.023 78.5073 154.951 78.4351 154.861 78.4351Z" fill="#E6E6E6"/>
<path d="M157.46 78.4351H156.483C156.394 78.4351 156.322 78.5073 156.322 78.5964V79.0526C156.322 79.1417 156.394 79.2139 156.483 79.2139H157.46C157.549 79.2139 157.621 79.1417 157.621 79.0526V78.5964C157.621 78.5073 157.549 78.4351 157.46 78.4351Z" fill="#E6E6E6"/>
<path d="M160.058 78.4351H159.082C158.993 78.4351 158.92 78.5073 158.92 78.5964V79.0526C158.92 79.1417 158.993 79.2139 159.082 79.2139H160.058C160.147 79.2139 160.22 79.1417 160.22 79.0526V78.5964C160.22 78.5073 160.147 78.4351 160.058 78.4351Z" fill="#E6E6E6"/>
<path d="M162.656 78.4351H161.68C161.591 78.4351 161.519 78.5073 161.519 78.5964V79.0526C161.519 79.1417 161.591 79.2139 161.68 79.2139H162.656C162.746 79.2139 162.818 79.1417 162.818 79.0526V78.5964C162.818 78.5073 162.746 78.4351 162.656 78.4351Z" fill="#E6E6E6"/>
<path d="M165.255 78.4351H164.279C164.189 78.4351 164.117 78.5073 164.117 78.5964V79.0526C164.117 79.1417 164.189 79.2139 164.279 79.2139H165.255C165.344 79.2139 165.416 79.1417 165.416 79.0526V78.5964C165.416 78.5073 165.344 78.4351 165.255 78.4351Z" fill="#E6E6E6"/>
<path d="M167.853 78.4351H166.877C166.788 78.4351 166.715 78.5073 166.715 78.5964V79.0526C166.715 79.1417 166.788 79.2139 166.877 79.2139H167.853C167.942 79.2139 168.014 79.1417 168.014 79.0526V78.5964C168.014 78.5073 167.942 78.4351 167.853 78.4351Z" fill="#E6E6E6"/>
<path d="M170.451 78.4351H169.475C169.386 78.4351 169.314 78.5073 169.314 78.5964V79.0526C169.314 79.1417 169.386 79.2139 169.475 79.2139H170.451C170.541 79.2139 170.613 79.1417 170.613 79.0526V78.5964C170.613 78.5073 170.541 78.4351 170.451 78.4351Z" fill="#E6E6E6"/>
<path d="M173.05 78.4351H172.073C171.984 78.4351 171.912 78.5073 171.912 78.5964V79.0526C171.912 79.1417 171.984 79.2139 172.073 79.2139H173.05C173.139 79.2139 173.211 79.1417 173.211 79.0526V78.5964C173.211 78.5073 173.139 78.4351 173.05 78.4351Z" fill="#E6E6E6"/>
<path d="M155.641 79.9927H145.571C145.481 79.9927 145.409 80.0649 145.409 80.154V80.6102C145.409 80.6993 145.481 80.7715 145.571 80.7715H155.641C155.73 80.7715 155.802 80.6993 155.802 80.6102V80.154C155.802 80.0649 155.73 79.9927 155.641 79.9927Z" fill="#E6E6E6"/>
<path d="M177.434 22.6365V47.59C177.434 49.2611 176.77 50.8637 175.587 52.0453C174.404 53.227 172.8 53.8909 171.128 53.8911H139.869C138.638 53.8914 137.434 53.5322 136.406 52.8576C135.377 52.183 134.568 51.2226 134.078 50.0946C133.914 49.7218 133.789 49.3332 133.704 48.9348C134.369 49.1917 135.075 49.3228 135.788 49.3214H167.047C168.588 49.3193 170.066 48.7066 171.155 47.6177C172.245 46.5288 172.858 45.0525 172.861 43.5126V18.5591C172.862 17.8472 172.731 17.1413 172.474 16.4774C172.872 16.5618 173.261 16.6869 173.634 16.8508C174.763 17.3399 175.725 18.1482 176.4 19.1762C177.075 20.2042 177.435 21.407 177.434 22.6365Z" fill="#F2F2F2"/>
<path d="M60.8169 121.917L57.7164 123.835L48.5825 112.617L53.1582 109.787L60.8169 121.917Z" fill="#FFB6B6"/>
<path d="M63.4936 125.924L60.9995 127.036L59.5032 124.882L59.4142 127.743L52.7995 130.693C52.4825 130.835 52.1285 130.871 51.7892 130.797C51.4499 130.724 51.1432 130.543 50.9137 130.283C50.6842 130.023 50.544 129.696 50.5136 129.35C50.4832 129.005 50.5641 128.658 50.7446 128.362L54.3983 122.361L53.3357 119.983L59.0398 117.836L63.4936 125.924Z" fill="#2F2E41"/>
<path d="M52.1317 119.759L57.3681 114.689C53.4777 105.097 53.1668 99.1517 47.7735 87.551C60.5697 90.166 69.7182 90.007 80.301 87.6625C83.8837 86.8812 93.1278 79.7469 92.3678 76.0888C92.3323 75.9179 92.2903 75.7485 92.2419 75.5807C91.1059 71.7109 91.9058 65.785 89.4471 61.4909C84.8982 59.7774 77.9871 65.5635 72.5808 69.0906C69.974 70.7913 71.8822 73.1089 69.9351 73.7165L62.4713 76.1372L44.159 73.1823C43.274 73.0482 42.3711 73.0905 41.5026 73.3067C40.634 73.5229 39.8169 73.9088 39.0982 74.442C38.3796 74.9752 37.7737 75.6452 37.3154 76.4134C36.8572 77.1817 36.5556 78.0329 36.4282 78.9181C36.3972 79.1168 36.3747 79.3165 36.3608 79.5173C37.2034 84.1774 38.0817 88.7152 39.0274 93.0228C39.3326 94.4132 38.8173 97.0789 39.9652 97.1185C41.113 97.1582 40.6506 99.9152 41.0081 101.263C43.2089 109.561 44.6007 113.577 52.1317 119.759Z" fill="#2F2E41"/>
<path d="M42.1092 141.997L38.8792 140.313L43.9896 126.787L48.7568 129.273L42.1092 141.997Z" fill="#FFB6B6"/>
<path d="M41.5708 131.899L46.7501 135.462C53.098 126.29 57.2197 114.033 60.2892 100.318C72.2406 95.1094 82.6984 89.1499 89.9859 81.1562C91.1827 79.816 91.8102 78.063 91.7356 76.2684C91.6609 74.4739 90.8899 72.7789 89.586 71.5426C89.4584 71.4231 89.3266 71.3087 89.1904 71.1993C86.0339 68.6872 79.0234 70.1327 74.5426 68.033L66.5381 79.102L67.4581 81.6801L64.6736 83.0345L62.3225 84.1781L59.6311 85.4871L50.8083 89.7784C50.0085 90.1779 49.2957 90.7316 48.7111 91.4077C48.1264 92.0838 47.6816 92.8688 47.4021 93.7175C47.1227 94.5662 47.0142 95.4618 47.0829 96.3526C47.1516 97.2434 47.3962 98.1118 47.8025 98.9077C47.8917 99.088 47.9884 99.2642 48.0927 99.4364L44.816 115.746C44.816 115.746 45.7177 118.585 44.299 118.32C42.8803 118.054 43.6534 121.533 43.6534 121.533L41.5708 131.899Z" fill="#2F2E41"/>
<path d="M40.1531 149.452L37.7318 148.189L38.4927 145.68L36.1927 147.387L29.7709 144.038C29.4631 143.877 29.2146 143.623 29.0619 143.311C28.9091 143 28.8601 142.648 28.9218 142.306C28.9836 141.965 29.153 141.652 29.4053 141.414C29.6575 141.175 29.9794 141.024 30.324 140.981L37.3008 140.117L38.507 137.807L43.733 140.942L40.1531 149.452Z" fill="#2F2E41"/>
<path d="M110.753 78.5426L106.975 69.421L103.998 71.0731L105.796 80.3521C105.616 80.9399 105.604 81.5663 105.76 82.1608C105.917 82.7553 106.237 83.2943 106.683 83.7172C107.13 84.1401 107.685 84.4303 108.288 84.5549C108.891 84.6796 109.516 84.6338 110.094 84.4229C110.672 84.2119 111.179 83.844 111.559 83.3606C111.94 82.8772 112.177 82.2975 112.246 81.6865C112.314 81.0756 112.211 80.4577 111.947 79.9023C111.683 79.3469 111.27 78.876 110.753 78.5426Z" fill="#FFB6B6"/>
<path d="M47.3606 6.41243L53.1087 14.4416L55.633 12.1586L51.778 3.52789C51.82 2.91457 51.6899 2.3017 51.4025 1.75817C51.115 1.21464 50.6815 0.762008 50.1506 0.451157C49.6198 0.140305 49.0127 -0.016441 48.3976 -0.00145973C47.7825 0.0135215 47.1837 0.199636 46.6687 0.535961C46.1536 0.872285 45.7427 1.34548 45.4821 1.90236C45.2214 2.45924 45.1214 3.07771 45.1933 3.68826C45.2652 4.29881 45.5061 4.87722 45.889 5.35846C46.2718 5.83971 46.7814 6.20471 47.3606 6.41243Z" fill="#FFB6B6"/>
<path d="M73.3177 57.3022C69.5894 63.08 83.2483 75.669 90.4392 72.7252C91.6984 72.2098 96.0297 70.5072 93.0691 68.1468C90.1085 65.7864 93.4123 68.428 93.4904 66.8914C93.5426 65.8641 92.7466 63.6106 93.5772 63.7072C94.4077 63.8038 94.8844 61.4037 93.0755 60.7924C92.4466 60.568 91.8947 60.169 91.4847 59.6423C91.0746 59.1155 90.8234 58.4829 90.7606 57.8186C90.5876 51.4855 92.7342 44.8735 92.7342 44.8735L101.497 67.2546C101.497 67.2546 101.433 71.1267 102.55 69.9434C103.668 68.7602 103.586 72.5899 103.586 72.5899C103.586 72.5899 105.248 73.7485 104.292 74.3933C103.337 75.0382 105.321 77.0207 105.321 77.0207L109.951 76.6903C109.951 76.6903 109.879 73.2539 109.088 72.4939C108.298 71.734 108.686 70.5382 108.686 70.5382C108.686 70.5382 107.056 69.0235 108.008 67.2397C108.959 65.4559 101.079 33.5493 101.079 33.5493C100.763 32.0143 100.029 30.5963 98.9568 29.4522C97.8849 28.308 96.5172 27.4823 95.005 27.0663L90.0043 25.6907L89.1163 22.1706H82.0751L80.8486 24.4836L69.6044 23.4923C69.6044 23.4923 58.4784 13.3781 59.0216 12.5884C59.5648 11.7986 57.8401 9.94969 57.8401 9.94969C57.8401 9.94969 56.3672 9.46802 57.1983 9.21086C58.0295 8.95369 56.4584 8.35914 56.4584 8.35914C56.4584 8.35914 55.0034 7.97714 55.6897 7.47415C56.3759 6.97117 53.3995 6.64075 53.3995 6.64075L49.5377 9.78887L50.3182 11.1112C50.3182 11.1112 49.8423 12.9118 50.4634 12.2544C51.0845 11.5971 51.2014 13.5047 51.2014 13.5047C51.2014 13.5047 51.5186 15.5937 53.3995 16.223C55.2804 16.8524 56.7066 22.8315 56.7066 22.8315L72.5808 36.0484C70.1631 38.821 70.7385 41.7204 72.8803 44.6862L73.3177 57.3022Z" fill="#25BEF5"/>
<path d="M85.4369 19.8318C89.648 19.8318 93.0617 16.4211 93.0617 12.2137C93.0617 8.00633 89.648 4.59558 85.4369 4.59558C81.2259 4.59558 77.8121 8.00633 77.8121 12.2137C77.8121 16.4211 81.2259 19.8318 85.4369 19.8318Z" fill="#FFB6B6"/>
<path d="M92.0927 9.9449C91.8976 10.0011 89.0336 10.3744 87.7935 10.6057C86.5764 10.8337 86.3648 9.28405 85.3693 9.57483C85.3699 9.56805 85.3687 9.56124 85.366 9.555C85.2117 8.7339 84.9481 7.93711 84.5823 7.18587C84.715 7.90539 84.734 8.64126 84.6385 9.36666C84.6379 9.38554 84.6357 9.40434 84.6319 9.42283C84.6286 9.45588 84.622 9.48561 84.6186 9.51865C83.567 9.05606 82.8989 9.46909 82.1714 9.61448C81.3578 9.77638 80.7229 10.1332 81.1792 12.9187C82.1152 18.6482 86.9832 20.6935 86.1399 24.4835C85.9746 25.2335 85.5579 26.1719 85.0353 26.4065C84.881 25.5854 84.6174 24.7887 84.2516 24.0374C84.3843 24.7569 84.4033 25.4928 84.3078 26.2182C83.4976 25.3426 82.9122 22.2829 80.1871 19.8576C79.5158 19.2628 76.1524 15.7339 75.749 14.9012C75.8728 15.567 75.9326 16.243 75.9276 16.9201C75.9283 17.3733 75.8974 17.826 75.835 18.2748C75.8349 18.3038 75.8316 18.3326 75.825 18.3608C75.8217 18.4136 75.8118 18.4599 75.8052 18.5095C75.7986 18.5656 75.7887 18.6185 75.7787 18.6747C74.6775 18.5161 73.7019 18.3244 73.2422 17.875C71.0066 15.7009 73.7349 11.4648 75.2265 7.63194C77.3595 2.14362 83.5538 1.41339 84.1557 1.35391C86.808 1.08627 91.2891 1.6546 92.7542 4.65814C93.7793 6.76293 93.1245 9.64751 92.0927 9.9449Z" fill="#2F2E41"/>
<path d="M76.0153 11.1837L81.5385 2.59928C80.2148 1.83151 78.7075 1.43647 77.1771 1.45615C76.4143 1.47198 75.6635 1.64823 74.9735 1.97339C74.2835 2.29856 73.6698 2.76535 73.1724 3.34333C72.0444 4.74406 71.8508 6.72415 72.2735 8.47171C72.4194 9.07527 75.1989 6.95165 74.5375 7.94291C73.9945 8.71902 73.1067 11.9812 72.884 12.8993C72.5256 14.3768 71.5401 15.8936 72.418 17.1354C73.456 18.604 75.3084 19.3339 77.1063 19.4081C78.9042 19.4822 80.6739 18.9844 82.3825 18.4205L76.0153 11.1837Z" fill="#2F2E41"/>
<path d="M78.1375 10.8453C78.0577 10.8452 77.9807 10.8163 77.9206 10.7639C77.8604 10.7116 77.8213 10.6393 77.8103 10.5604C77.7993 10.4814 77.8172 10.4012 77.8608 10.3344C77.9043 10.2677 77.9705 10.2189 78.0472 10.197C78.1339 10.0541 78.0984 9.45243 78.0698 8.96632C77.9623 7.14109 77.7822 4.08631 80.7506 2.02422C80.8226 1.9742 80.9115 1.9548 80.9978 1.97029C81.0841 1.98579 81.1607 2.0349 81.2108 2.10683C81.2609 2.17876 81.2803 2.26761 81.2648 2.35384C81.2493 2.44008 81.2001 2.51662 81.1281 2.56664C78.4643 4.41737 78.6242 7.13157 78.7301 8.92744C78.7905 9.9542 78.8343 10.6959 78.211 10.837C78.1869 10.8425 78.1622 10.8453 78.1375 10.8453Z" fill="#25BEF5"/>
<path d="M1.73437e-06 149.335C-0.000307467 149.439 0.0407377 149.538 0.114103 149.612C0.187468 149.686 0.287144 149.728 0.391208 149.728H236.948C237.053 149.728 237.153 149.686 237.227 149.613C237.3 149.539 237.342 149.439 237.342 149.335C237.342 149.23 237.3 149.13 237.227 149.057C237.153 148.983 237.053 148.941 236.948 148.941H0.393559C0.34203 148.941 0.290977 148.951 0.243312 148.971C0.195647 148.99 0.152302 149.019 0.115758 149.055C0.0792135 149.092 0.0501843 149.135 0.0303247 149.182C0.0104651 149.23 0.000163173 149.281 1.18269e-05 149.332L1.73437e-06 149.335Z" fill="#3B3B3C"/>
<path d="M146.351 31.3404H141.347C141.214 31.3404 141.087 31.2878 140.993 31.194C140.899 31.1002 140.847 30.9731 140.847 30.8405C140.847 30.7078 140.899 30.5807 140.993 30.4869C141.087 30.3931 141.214 30.3405 141.347 30.3405H146.351C146.484 30.3405 146.611 30.3931 146.705 30.4869C146.799 30.5807 146.852 30.7078 146.852 30.8405C146.852 30.9731 146.799 31.1002 146.705 31.194C146.611 31.2878 146.484 31.3404 146.351 31.3404Z" fill="#25BEF5"/>
<path d="M155.359 31.3404H150.355C150.289 31.3404 150.224 31.3275 150.163 31.3024C150.103 31.2773 150.047 31.2404 150.001 31.194C149.954 31.1476 149.918 31.0925 149.892 31.0318C149.867 30.9711 149.854 30.9061 149.854 30.8405C149.854 30.7748 149.867 30.7098 149.892 30.6491C149.918 30.5884 149.954 30.5333 150.001 30.4869C150.047 30.4405 150.103 30.4036 150.163 30.3785C150.224 30.3534 150.289 30.3405 150.355 30.3405H155.359C155.425 30.3405 155.49 30.3534 155.551 30.3785C155.611 30.4036 155.667 30.4405 155.713 30.4869C155.759 30.5333 155.796 30.5884 155.821 30.6491C155.847 30.7098 155.86 30.7748 155.86 30.8405C155.86 30.9061 155.847 30.9711 155.821 31.0318C155.796 31.0925 155.759 31.1476 155.713 31.194C155.667 31.2404 155.611 31.2773 155.551 31.3024C155.49 31.3275 155.425 31.3404 155.359 31.3404Z" fill="#25BEF5"/>
<path d="M159.863 35.3403H154.859C154.793 35.3403 154.728 35.3274 154.667 35.3023C154.606 35.2771 154.551 35.2403 154.505 35.1939C154.458 35.1475 154.422 35.0923 154.396 35.0317C154.371 34.971 154.358 34.906 154.358 34.8403C154.358 34.7747 154.371 34.7096 154.396 34.649C154.422 34.5883 154.458 34.5332 154.505 34.4868C154.551 34.4403 154.606 34.4035 154.667 34.3784C154.728 34.3533 154.793 34.3403 154.859 34.3403H159.863C159.929 34.3403 159.994 34.3533 160.055 34.3784C160.115 34.4035 160.17 34.4403 160.217 34.4868C160.263 34.5332 160.3 34.5883 160.325 34.649C160.351 34.7096 160.364 34.7747 160.364 34.8403C160.364 34.906 160.351 34.971 160.325 35.0317C160.3 35.0923 160.263 35.1475 160.217 35.1939C160.17 35.2403 160.115 35.2771 160.055 35.3023C159.994 35.3274 159.929 35.3403 159.863 35.3403Z" fill="#25BEF5"/>
<path d="M150.883 35.3403H141.347C141.214 35.3403 141.087 35.2877 140.993 35.1939C140.899 35.1001 140.847 34.9729 140.847 34.8403C140.847 34.7077 140.899 34.5805 140.993 34.4868C141.087 34.393 141.214 34.3403 141.347 34.3403H150.883C151.016 34.3403 151.143 34.393 151.237 34.4868C151.331 34.5805 151.383 34.7077 151.383 34.8403C151.383 34.9729 151.331 35.1001 151.237 35.1939C151.143 35.2877 151.016 35.3403 150.883 35.3403Z" fill="#25BEF5"/>
<path d="M168.899 31.3404H159.363C159.23 31.3404 159.103 31.2878 159.009 31.194C158.915 31.1002 158.862 30.9731 158.862 30.8405C158.862 30.7078 158.915 30.5807 159.009 30.4869C159.103 30.3931 159.23 30.3405 159.363 30.3405H168.899C168.964 30.3405 169.029 30.3534 169.09 30.3785C169.151 30.4036 169.206 30.4405 169.252 30.4869C169.299 30.5333 169.336 30.5884 169.361 30.6491C169.386 30.7098 169.399 30.7748 169.399 30.8405C169.399 30.9061 169.386 30.9711 169.361 31.0318C169.336 31.0925 169.299 31.1476 169.252 31.194C169.206 31.2404 169.151 31.2773 169.09 31.3024C169.029 31.3275 168.964 31.3404 168.899 31.3404Z" fill="#25BEF5"/>
<path d="M149.777 23.7657H140.242C140.176 23.7659 140.111 23.7531 140.05 23.7281C139.989 23.703 139.934 23.6662 139.887 23.6198C139.84 23.5733 139.803 23.5181 139.778 23.4574C139.753 23.3966 139.74 23.3315 139.74 23.2657C139.74 23.2 139.753 23.1349 139.778 23.0741C139.803 23.0134 139.84 22.9582 139.887 22.9117C139.934 22.8653 139.989 22.8285 140.05 22.8034C140.111 22.7784 140.176 22.7656 140.242 22.7657H149.777C149.91 22.7657 150.037 22.8184 150.131 22.9122C150.225 23.006 150.278 23.1331 150.278 23.2657C150.278 23.3984 150.225 23.5255 150.131 23.6193C150.037 23.7131 149.91 23.7657 149.777 23.7657Z" fill="#25BEF5"/>
<path d="M150.562 26.687C150.468 26.687 150.377 26.6579 150.301 26.6037C150.225 26.5495 150.168 26.4729 150.137 26.3846C150.107 26.2963 150.105 26.2008 150.132 26.1113C150.159 26.0219 150.212 25.943 150.286 25.8857L152.728 23.9894C152.826 23.9132 152.907 23.8175 152.966 23.7083C153.026 23.5991 153.061 23.4788 153.072 23.355C153.082 23.2313 153.066 23.1068 153.026 22.9894C152.985 22.872 152.921 22.7643 152.836 22.6731L150.786 20.4558C150.747 20.4126 150.716 20.362 150.695 20.3068C150.675 20.2516 150.665 20.193 150.668 20.1342C150.67 20.0755 150.684 20.0178 150.709 19.9644C150.733 19.911 150.768 19.8629 150.811 19.823C150.855 19.7831 150.905 19.7521 150.961 19.7318C151.016 19.7114 151.074 19.7021 151.133 19.7044C151.192 19.7068 151.25 19.7206 151.303 19.7453C151.357 19.7699 151.405 19.8048 151.445 19.848L154.489 23.1406C154.531 23.1861 154.563 23.2399 154.584 23.2985C154.604 23.3571 154.612 23.4193 154.607 23.4811C154.601 23.5429 154.584 23.603 154.554 23.6576C154.525 23.7121 154.484 23.7599 154.435 23.798L150.836 26.5928C150.758 26.6539 150.661 26.687 150.562 26.687Z" fill="#25BEF5"/>
<path d="M139.759 26.687C139.852 26.687 139.944 26.6579 140.02 26.6037C140.096 26.5495 140.153 26.4729 140.183 26.3846C140.213 26.2963 140.215 26.2008 140.189 26.1113C140.162 26.0219 140.108 25.943 140.034 25.8857L137.593 23.9894C137.494 23.9132 137.413 23.8175 137.354 23.7083C137.295 23.5991 137.259 23.4788 137.249 23.355C137.239 23.2313 137.254 23.1068 137.295 22.9894C137.335 22.872 137.4 22.7643 137.484 22.6731L139.534 20.4558C139.574 20.4126 139.605 20.362 139.625 20.3068C139.646 20.2516 139.655 20.193 139.653 20.1342C139.65 20.0755 139.637 20.0178 139.612 19.9644C139.587 19.911 139.552 19.8629 139.509 19.823C139.466 19.7831 139.415 19.7521 139.36 19.7318C139.305 19.7114 139.246 19.7021 139.187 19.7044C139.128 19.7068 139.071 19.7206 139.017 19.7453C138.964 19.7699 138.916 19.8048 138.876 19.848L135.832 23.1406C135.789 23.1861 135.757 23.2399 135.737 23.2985C135.717 23.3571 135.709 23.4193 135.714 23.4811C135.719 23.5429 135.737 23.603 135.767 23.6576C135.796 23.7121 135.837 23.7599 135.886 23.798L139.484 26.5928C139.563 26.6539 139.659 26.687 139.759 26.687Z" fill="#25BEF5"/>
<path d="M154.707 43.9149H145.171C145.038 43.9149 144.911 43.8622 144.817 43.7685C144.724 43.6747 144.671 43.5475 144.671 43.4149C144.671 43.2823 144.724 43.1551 144.817 43.0614C144.911 42.9676 145.038 42.9149 145.171 42.9149H154.707C154.84 42.9149 154.967 42.9676 155.061 43.0614C155.155 43.1551 155.208 43.2823 155.208 43.4149C155.208 43.5475 155.155 43.6747 155.061 43.7685C154.967 43.8622 154.84 43.9149 154.707 43.9149Z" fill="#25BEF5"/>
<path d="M156.387 46.3884C156.294 46.3884 156.203 46.3593 156.127 46.3051C156.051 46.2509 155.994 46.1743 155.963 46.086C155.933 45.9977 155.931 45.9022 155.958 45.8127C155.984 45.7233 156.038 45.6444 156.112 45.5871L158.554 43.6908C158.652 43.6146 158.733 43.5189 158.792 43.4097C158.852 43.3005 158.887 43.1802 158.898 43.0565C158.908 42.9327 158.892 42.8082 158.852 42.6908C158.811 42.5734 158.747 42.4657 158.662 42.3745L156.612 40.1572C156.572 40.114 156.541 40.0634 156.521 40.0082C156.501 39.953 156.491 39.8944 156.494 39.8356C156.496 39.7769 156.51 39.7192 156.535 39.6658C156.559 39.6124 156.594 39.5643 156.637 39.5244C156.681 39.4845 156.731 39.4535 156.786 39.4332C156.842 39.4128 156.9 39.4036 156.959 39.4059C157.018 39.4082 157.076 39.422 157.129 39.4467C157.183 39.4713 157.231 39.5062 157.271 39.5494L160.315 42.842C160.357 42.8875 160.389 42.9413 160.409 42.9999C160.43 43.0586 160.438 43.1207 160.432 43.1825C160.427 43.2443 160.409 43.3044 160.38 43.359C160.35 43.4135 160.31 43.4613 160.261 43.4994L156.662 46.2942C156.584 46.3553 156.487 46.3884 156.387 46.3884Z" fill="#25BEF5"/>
<path d="M139.759 46.3884C139.852 46.3884 139.944 46.3593 140.02 46.3051C140.096 46.2509 140.153 46.1743 140.183 46.086C140.213 45.9977 140.215 45.9022 140.189 45.8127C140.162 45.7233 140.108 45.6444 140.034 45.5871L137.593 43.6908C137.494 43.6146 137.413 43.5189 137.354 43.4097C137.295 43.3005 137.259 43.1802 137.249 43.0565C137.239 42.9327 137.254 42.8082 137.295 42.6908C137.335 42.5734 137.4 42.4657 137.484 42.3745L139.534 40.1572C139.615 40.07 139.657 39.9543 139.653 39.8356C139.648 39.717 139.596 39.605 139.509 39.5244C139.422 39.4438 139.306 39.4012 139.187 39.4059C139.069 39.4105 138.957 39.4622 138.876 39.5494L135.832 42.842C135.789 42.8875 135.757 42.9413 135.737 42.9999C135.717 43.0586 135.709 43.1207 135.714 43.1825C135.719 43.2443 135.737 43.3044 135.767 43.359C135.796 43.4135 135.837 43.4613 135.886 43.4994L139.484 46.2942C139.563 46.3553 139.659 46.3884 139.759 46.3884Z" fill="#25BEF5"/>
<path d="M140.61 44.9874L142.614 40.4061C142.668 40.2852 142.767 40.1904 142.891 40.1424C143.014 40.0945 143.151 40.0973 143.273 40.1503C143.394 40.2032 143.489 40.302 143.538 40.425C143.586 40.548 143.584 40.6852 143.532 40.8066L141.527 45.388C141.501 45.4484 141.463 45.5032 141.416 45.549C141.368 45.5948 141.313 45.6308 141.251 45.655C141.19 45.6792 141.124 45.691 141.058 45.6898C140.993 45.6886 140.928 45.6744 140.867 45.648C140.807 45.6216 140.752 45.5836 140.706 45.5361C140.661 45.4886 140.625 45.4325 140.601 45.3711C140.577 45.3097 140.566 45.2442 140.567 45.1784C140.569 45.1125 140.583 45.0476 140.61 44.9874Z" fill="#25BEF5"/>
</g>
<defs>
<clipPath id="clip0_32_149">
<rect width="237.342" height="150" fill="white"/>
</clipPath>
</defs>
</svg>
