<svg width="265" height="167" viewBox="0 0 265 167" fill="none" xmlns="http://www.w3.org/2000/svg">
<g clip-path="url(#clip0_32_149)">
<path d="M100.143 26.2941C99.9611 26.5287 99.7094 26.6998 99.4241 26.7828C99.1389 26.8659 98.8346 26.8567 98.5548 26.7567C98.4697 26.7315 98.3863 26.7011 98.3049 26.6656C98.3968 25.6844 98.3513 24.6952 98.1697 23.7265C98.0984 24.5591 97.8946 25.375 97.566 26.1435C97.2982 25.8751 97.0789 25.5624 96.918 25.2191C96.6182 24.5089 96.4196 23.7602 96.3278 22.9949C95.8843 20.3874 95.4468 17.6747 96.1704 15.1265C97.2303 11.404 100.573 8.72796 101.969 5.11631L102.657 4.49939C103.834 6.5026 103.886 8.99183 103.406 11.2633C102.929 13.5393 101.967 15.6755 101.206 17.8704C100.446 20.0653 99.876 22.4 100.229 24.6967C100.31 25.2375 100.434 25.8319 100.143 26.2941Z" fill="#2F2E41"/>
<path d="M84.8569 57.7917L80.3745 78.2751L99.9528 84.6463L97.0739 57.7917H84.8569Z" fill="#FFB6B6"/>
<path d="M223.014 166.497H231.886V125.859C231.874 115.371 227.699 105.317 220.276 97.9008C212.854 90.4849 202.79 86.3134 192.294 86.3015H109.841C99.3443 86.3134 89.2808 90.4849 81.8584 97.9008C74.4361 105.317 70.261 115.371 70.2491 125.859V166.497H79.121V138.735C79.1329 128.149 83.3468 118.001 90.8382 110.516C98.3296 103.031 108.487 98.8211 119.081 98.8091H183.053C193.648 98.8211 203.805 103.031 211.296 110.516C218.788 118.001 223.002 128.149 223.014 138.735V166.497Z" fill="#E6E6E6"/>
<path d="M115.205 145.237L105.75 142.377C105.135 139.853 104.825 137.264 104.826 134.666C104.831 134.079 105.002 133.505 105.321 133.012C105.64 132.52 106.093 132.127 106.626 131.882C107.16 131.637 107.752 131.549 108.334 131.628C108.916 131.706 109.464 131.949 109.913 132.328C114.984 136.674 122.412 138.993 127.206 143.945C129.19 146.027 130.68 148.527 131.565 151.262C132.45 153.997 132.708 156.896 132.319 159.744L134.389 166.432C129.757 166.098 125.253 164.764 121.186 162.524C117.119 160.283 113.587 157.188 110.833 153.452C109.309 151.341 108.057 149.046 107.107 146.622C111.117 146.168 115.205 145.237 115.205 145.237Z" fill="#84C383"/>
<path d="M139.848 156.19L144.671 154.731C144.677 154.706 144.683 154.68 144.689 154.654C144.822 154.065 144.78 153.45 144.568 152.884C144.355 152.318 143.981 151.827 143.492 151.471C143.003 151.116 142.421 150.911 141.817 150.882C141.213 150.853 140.614 151.002 140.093 151.309C137.904 152.609 135.473 153.727 133.727 155.531C132.715 156.592 131.955 157.868 131.504 159.263C131.053 160.658 130.921 162.136 131.119 163.589L130.064 167C132.426 166.83 134.724 166.15 136.798 165.007C138.872 163.864 140.673 162.285 142.078 160.38C142.855 159.303 143.494 158.133 143.979 156.896C141.933 156.665 139.848 156.19 139.848 156.19Z" fill="#84C383"/>
<path d="M178.886 56.3319H160.106C159.84 56.3323 159.586 56.4381 159.398 56.626C159.21 56.814 159.105 57.0687 159.105 57.3341V86.9748H179.889V57.3341C179.889 57.2025 179.863 57.0721 179.813 56.9505C179.762 56.8289 179.688 56.7184 179.595 56.6253C179.502 56.5322 179.391 56.4584 179.27 56.4081C179.148 56.3577 179.017 56.3318 178.886 56.3319ZM169.559 73.1734C168.972 73.1707 168.409 72.9364 167.994 72.5214C167.579 72.1065 167.344 71.5445 167.341 70.9578V67.539C167.342 66.9518 167.576 66.389 167.992 65.9741C168.408 65.5592 168.971 65.3262 169.559 65.3262C170.147 65.3262 170.71 65.5592 171.126 65.9741C171.542 66.389 171.776 66.9518 171.777 67.539V70.9578C171.774 71.5445 171.539 72.1065 171.124 72.5214C170.709 72.9364 170.146 73.1707 169.559 73.1734Z" fill="#3F3D56"/>
<path d="M209.983 10.0742H129.707C129.017 10.0753 128.356 10.3495 127.868 10.8368C127.381 11.3241 127.106 11.9846 127.105 12.6737V66.7974C127.106 67.4866 127.38 68.1474 127.868 68.6348C128.356 69.1221 129.017 69.3962 129.707 69.3969H209.983C210.673 69.3962 211.335 69.1221 211.822 68.6348C212.31 68.1474 212.585 67.4866 212.585 66.7974V12.6737C212.584 11.9846 212.31 11.3241 211.822 10.8368C211.334 10.3495 210.673 10.0753 209.983 10.0742Z" fill="#3F3D56"/>
<path d="M209.313 11.9519H130.378C130.008 11.9527 129.654 12.0998 129.393 12.361C129.133 12.6222 128.986 12.9761 128.986 13.345V66.1271C128.987 66.4956 129.134 66.8489 129.394 67.1095C129.655 67.37 130.009 67.5167 130.378 67.5174H209.313C209.682 67.5167 210.036 67.37 210.297 67.1095C210.557 66.8489 210.704 66.4956 210.705 66.1271V13.345C210.705 12.976 210.558 12.6222 210.297 12.361C210.037 12.0998 209.683 11.9527 209.313 11.9519Z" fill="white"/>
<path d="M159.041 86.0267V88.8865C159.041 89.0347 159.1 89.1767 159.205 89.2815C159.31 89.3862 159.452 89.4452 159.6 89.4455H179.394C179.542 89.4448 179.684 89.3856 179.788 89.281C179.893 89.1763 179.952 89.0345 179.953 88.8865V86.0267H159.041Z" fill="#3F3D56"/>
<path d="M193.938 90.4407H146.975C146.847 90.4407 146.72 90.4121 146.604 90.3568C146.488 90.3016 146.386 90.2212 146.305 90.1214C146.224 90.0217 146.166 89.9052 146.136 89.7803C146.106 89.6555 146.104 89.5255 146.13 89.3998L146.859 85.9419C146.9 85.7484 147.007 85.575 147.16 85.4503C147.314 85.3257 147.506 85.2573 147.704 85.2566H193.209C193.407 85.2573 193.599 85.3257 193.753 85.4503C193.907 85.575 194.013 85.7484 194.055 85.9419L194.783 89.3998C194.81 89.5255 194.808 89.6555 194.778 89.7803C194.748 89.9052 194.69 90.0217 194.609 90.1214C194.528 90.2212 194.426 90.3016 194.31 90.3568C194.193 90.4121 194.067 90.4407 193.938 90.4407Z" fill="#3F3D56"/>
<path d="M149.304 85.8792H148.217C148.118 85.8792 148.038 85.9596 148.038 86.0587V86.5666C148.038 86.6658 148.118 86.7462 148.217 86.7462H149.304C149.404 86.7462 149.484 86.6658 149.484 86.5666V86.0587C149.484 85.9596 149.404 85.8792 149.304 85.8792Z" fill="#E6E6E6"/>
<path d="M152.197 85.8792H151.11C151.011 85.8792 150.93 85.9596 150.93 86.0587V86.5666C150.93 86.6658 151.011 86.7462 151.11 86.7462H152.197C152.296 86.7462 152.377 86.6658 152.377 86.5666V86.0587C152.377 85.9596 152.296 85.8792 152.197 85.8792Z" fill="#E6E6E6"/>
<path d="M155.09 85.8792H154.003C153.904 85.8792 153.823 85.9596 153.823 86.0587V86.5666C153.823 86.6658 153.904 86.7462 154.003 86.7462H155.09C155.189 86.7462 155.27 86.6658 155.27 86.5666V86.0587C155.27 85.9596 155.189 85.8792 155.09 85.8792Z" fill="#E6E6E6"/>
<path d="M157.983 85.8792H156.896C156.796 85.8792 156.716 85.9596 156.716 86.0587V86.5666C156.716 86.6658 156.796 86.7462 156.896 86.7462H157.983C158.082 86.7462 158.162 86.6658 158.162 86.5666V86.0587C158.162 85.9596 158.082 85.8792 157.983 85.8792Z" fill="#E6E6E6"/>
<path d="M160.875 85.8792H159.789C159.689 85.8792 159.609 85.9596 159.609 86.0587V86.5666C159.609 86.6658 159.689 86.7462 159.789 86.7462H160.875C160.975 86.7462 161.055 86.6658 161.055 86.5666V86.0587C161.055 85.9596 160.975 85.8792 160.875 85.8792Z" fill="#E6E6E6"/>
<path d="M163.768 85.8792H162.681C162.582 85.8792 162.501 85.9596 162.501 86.0587V86.5666C162.501 86.6658 162.582 86.7462 162.681 86.7462H163.768C163.867 86.7462 163.948 86.6658 163.948 86.5666V86.0587C163.948 85.9596 163.867 85.8792 163.768 85.8792Z" fill="#E6E6E6"/>
<path d="M166.661 85.8792H165.574C165.475 85.8792 165.394 85.9596 165.394 86.0587V86.5666C165.394 86.6658 165.475 86.7462 165.574 86.7462H166.661C166.76 86.7462 166.841 86.6658 166.841 86.5666V86.0587C166.841 85.9596 166.76 85.8792 166.661 85.8792Z" fill="#E6E6E6"/>
<path d="M169.554 85.8792H168.467C168.368 85.8792 168.287 85.9596 168.287 86.0587V86.5666C168.287 86.6658 168.368 86.7462 168.467 86.7462H169.554C169.653 86.7462 169.734 86.6658 169.734 86.5666V86.0587C169.734 85.9596 169.653 85.8792 169.554 85.8792Z" fill="#E6E6E6"/>
<path d="M172.447 85.8792H171.36C171.26 85.8792 171.18 85.9596 171.18 86.0587V86.5666C171.18 86.6658 171.26 86.7462 171.36 86.7462H172.447C172.546 86.7462 172.626 86.6658 172.626 86.5666V86.0587C172.626 85.9596 172.546 85.8792 172.447 85.8792Z" fill="#E6E6E6"/>
<path d="M175.339 85.8792H174.253C174.153 85.8792 174.073 85.9596 174.073 86.0587V86.5666C174.073 86.6658 174.153 86.7462 174.253 86.7462H175.339C175.439 86.7462 175.519 86.6658 175.519 86.5666V86.0587C175.519 85.9596 175.439 85.8792 175.339 85.8792Z" fill="#E6E6E6"/>
<path d="M178.232 85.8792H177.145C177.046 85.8792 176.966 85.9596 176.966 86.0587V86.5666C176.966 86.6658 177.046 86.7462 177.145 86.7462H178.232C178.331 86.7462 178.412 86.6658 178.412 86.5666V86.0587C178.412 85.9596 178.331 85.8792 178.232 85.8792Z" fill="#E6E6E6"/>
<path d="M181.125 85.8792H180.038C179.939 85.8792 179.858 85.9596 179.858 86.0587V86.5666C179.858 86.6658 179.939 86.7462 180.038 86.7462H181.125C181.224 86.7462 181.305 86.6658 181.305 86.5666V86.0587C181.305 85.9596 181.224 85.8792 181.125 85.8792Z" fill="#E6E6E6"/>
<path d="M184.018 85.8792H182.931C182.832 85.8792 182.751 85.9596 182.751 86.0587V86.5666C182.751 86.6658 182.832 86.7462 182.931 86.7462H184.018C184.117 86.7462 184.197 86.6658 184.197 86.5666V86.0587C184.197 85.9596 184.117 85.8792 184.018 85.8792Z" fill="#E6E6E6"/>
<path d="M186.911 85.8792H185.824C185.724 85.8792 185.644 85.9596 185.644 86.0587V86.5666C185.644 86.6658 185.724 86.7462 185.824 86.7462H186.911C187.01 86.7462 187.09 86.6658 187.09 86.5666V86.0587C187.09 85.9596 187.01 85.8792 186.911 85.8792Z" fill="#E6E6E6"/>
<path d="M189.803 85.8792H188.716C188.617 85.8792 188.537 85.9596 188.537 86.0587V86.5666C188.537 86.6658 188.617 86.7462 188.716 86.7462H189.803C189.903 86.7462 189.983 86.6658 189.983 86.5666V86.0587C189.983 85.9596 189.903 85.8792 189.803 85.8792Z" fill="#E6E6E6"/>
<path d="M192.696 85.8792H191.609C191.51 85.8792 191.43 85.9596 191.43 86.0587V86.5666C191.43 86.6658 191.51 86.7462 191.609 86.7462H192.696C192.795 86.7462 192.876 86.6658 192.876 86.5666V86.0587C192.876 85.9596 192.795 85.8792 192.696 85.8792Z" fill="#E6E6E6"/>
<path d="M149.27 87.3243H148.183C148.084 87.3243 148.003 87.4047 148.003 87.5039V88.0118C148.003 88.111 148.084 88.1914 148.183 88.1914H149.27C149.369 88.1914 149.45 88.111 149.45 88.0118V87.5039C149.45 87.4047 149.369 87.3243 149.27 87.3243Z" fill="#E6E6E6"/>
<path d="M152.163 87.3243H151.076C150.977 87.3243 150.896 87.4047 150.896 87.5039V88.0118C150.896 88.111 150.977 88.1914 151.076 88.1914H152.163C152.262 88.1914 152.343 88.111 152.343 88.0118V87.5039C152.343 87.4047 152.262 87.3243 152.163 87.3243Z" fill="#E6E6E6"/>
<path d="M155.056 87.3243H153.969C153.869 87.3243 153.789 87.4047 153.789 87.5039V88.0118C153.789 88.111 153.869 88.1914 153.969 88.1914H155.056C155.155 88.1914 155.235 88.111 155.235 88.0118V87.5039C155.235 87.4047 155.155 87.3243 155.056 87.3243Z" fill="#E6E6E6"/>
<path d="M157.948 87.3243H156.862C156.762 87.3243 156.682 87.4047 156.682 87.5039V88.0118C156.682 88.111 156.762 88.1914 156.862 88.1914H157.948C158.048 88.1914 158.128 88.111 158.128 88.0118V87.5039C158.128 87.4047 158.048 87.3243 157.948 87.3243Z" fill="#E6E6E6"/>
<path d="M160.841 87.3243H159.754C159.655 87.3243 159.575 87.4047 159.575 87.5039V88.0118C159.575 88.111 159.655 88.1914 159.754 88.1914H160.841C160.941 88.1914 161.021 88.111 161.021 88.0118V87.5039C161.021 87.4047 160.941 87.3243 160.841 87.3243Z" fill="#E6E6E6"/>
<path d="M163.734 87.3243H162.647C162.548 87.3243 162.467 87.4047 162.467 87.5039V88.0118C162.467 88.111 162.548 88.1914 162.647 88.1914H163.734C163.833 88.1914 163.914 88.111 163.914 88.0118V87.5039C163.914 87.4047 163.833 87.3243 163.734 87.3243Z" fill="#E6E6E6"/>
<path d="M166.627 87.3243H165.54C165.441 87.3243 165.36 87.4047 165.36 87.5039V88.0118C165.36 88.111 165.441 88.1914 165.54 88.1914H166.627C166.726 88.1914 166.807 88.111 166.807 88.0118V87.5039C166.807 87.4047 166.726 87.3243 166.627 87.3243Z" fill="#E6E6E6"/>
<path d="M169.52 87.3243H168.433C168.333 87.3243 168.253 87.4047 168.253 87.5039V88.0118C168.253 88.111 168.333 88.1914 168.433 88.1914H169.52C169.619 88.1914 169.699 88.111 169.699 88.0118V87.5039C169.699 87.4047 169.619 87.3243 169.52 87.3243Z" fill="#E6E6E6"/>
<path d="M172.412 87.3243H171.325C171.226 87.3243 171.146 87.4047 171.146 87.5039V88.0118C171.146 88.111 171.226 88.1914 171.325 88.1914H172.412C172.512 88.1914 172.592 88.111 172.592 88.0118V87.5039C172.592 87.4047 172.512 87.3243 172.412 87.3243Z" fill="#E6E6E6"/>
<path d="M175.305 87.3243H174.218C174.119 87.3243 174.039 87.4047 174.039 87.5039V88.0118C174.039 88.111 174.119 88.1914 174.218 88.1914H175.305C175.404 88.1914 175.485 88.111 175.485 88.0118V87.5039C175.485 87.4047 175.404 87.3243 175.305 87.3243Z" fill="#E6E6E6"/>
<path d="M178.198 87.3243H177.111C177.012 87.3243 176.931 87.4047 176.931 87.5039V88.0118C176.931 88.111 177.012 88.1914 177.111 88.1914H178.198C178.297 88.1914 178.378 88.111 178.378 88.0118V87.5039C178.378 87.4047 178.297 87.3243 178.198 87.3243Z" fill="#E6E6E6"/>
<path d="M181.091 87.3243H180.004C179.905 87.3243 179.824 87.4047 179.824 87.5039V88.0118C179.824 88.111 179.905 88.1914 180.004 88.1914H181.091C181.19 88.1914 181.27 88.111 181.27 88.0118V87.5039C181.27 87.4047 181.19 87.3243 181.091 87.3243Z" fill="#E6E6E6"/>
<path d="M183.984 87.3243H182.897C182.797 87.3243 182.717 87.4047 182.717 87.5039V88.0118C182.717 88.111 182.797 88.1914 182.897 88.1914H183.984C184.083 88.1914 184.163 88.111 184.163 88.0118V87.5039C184.163 87.4047 184.083 87.3243 183.984 87.3243Z" fill="#E6E6E6"/>
<path d="M186.876 87.3243H185.789C185.69 87.3243 185.61 87.4047 185.61 87.5039V88.0118C185.61 88.111 185.69 88.1914 185.789 88.1914H186.876C186.976 88.1914 187.056 88.111 187.056 88.0118V87.5039C187.056 87.4047 186.976 87.3243 186.876 87.3243Z" fill="#E6E6E6"/>
<path d="M189.769 87.3243H188.682C188.583 87.3243 188.503 87.4047 188.503 87.5039V88.0118C188.503 88.111 188.583 88.1914 188.682 88.1914H189.769C189.868 88.1914 189.949 88.111 189.949 88.0118V87.5039C189.949 87.4047 189.868 87.3243 189.769 87.3243Z" fill="#E6E6E6"/>
<path d="M192.662 87.3243H191.575C191.476 87.3243 191.395 87.4047 191.395 87.5039V88.0118C191.395 88.111 191.476 88.1914 191.575 88.1914H192.662C192.761 88.1914 192.842 88.111 192.842 88.0118V87.5039C192.842 87.4047 192.761 87.3243 192.662 87.3243Z" fill="#E6E6E6"/>
<path d="M173.28 89.0585H162.069C161.969 89.0585 161.889 89.1389 161.889 89.2381V89.746C161.889 89.8451 161.969 89.9256 162.069 89.9256H173.28C173.38 89.9256 173.46 89.8451 173.46 89.746V89.2381C173.46 89.1389 173.38 89.0585 173.28 89.0585Z" fill="#E6E6E6"/>
<path d="M197.544 25.2019V52.9835C197.543 54.844 196.803 56.6282 195.487 57.9438C194.17 59.2594 192.384 59.9985 190.522 59.9988H155.721C154.351 59.9991 153.01 59.5991 151.865 58.8481C150.719 58.0971 149.819 57.0279 149.274 55.772C149.091 55.3569 148.952 54.9243 148.858 54.4807C149.597 54.7667 150.384 54.9127 151.177 54.9112H185.979C187.695 54.9088 189.34 54.2266 190.553 53.0143C191.766 51.802 192.449 50.1585 192.451 48.444V20.6624C192.453 19.8699 192.307 19.084 192.021 18.3448C192.465 18.4388 192.898 18.5781 193.313 18.7605C194.57 19.3051 195.64 20.205 196.392 21.3495C197.144 22.494 197.544 23.8331 197.544 25.2019Z" fill="#F2F2F2"/>
<path d="M67.7094 135.734L64.2576 137.87L54.0885 125.38L59.1828 122.229L67.7094 135.734Z" fill="#FFB6B6"/>
<path d="M70.6895 140.195L67.9128 141.433L66.2469 139.035L66.1478 142.221L58.7835 145.505C58.4305 145.663 58.0363 145.703 57.6586 145.621C57.2809 145.539 56.9393 145.338 56.6838 145.048C56.4283 144.759 56.2723 144.395 56.2384 144.01C56.2046 143.625 56.2947 143.24 56.4956 142.91L60.5634 136.229L59.3804 133.581L65.7309 131.191L70.6895 140.195Z" fill="#2F2E41"/>
<path d="M58.0399 133.332L63.8697 127.687C59.5384 117.008 59.1923 110.389 53.1877 97.4733C67.4342 100.385 77.6196 100.208 89.4017 97.5975C93.3904 96.7276 103.682 88.7848 102.836 84.7121C102.797 84.5218 102.75 84.3332 102.696 84.1464C101.431 79.8381 102.322 73.2406 99.5844 68.4597C94.52 66.552 86.8255 72.9939 80.8066 76.9208C77.9043 78.8142 80.0288 81.3945 77.8611 82.0709L69.5513 84.766L49.1636 81.4761C48.1783 81.3269 47.1732 81.374 46.2062 81.6147C45.2392 81.8554 44.3294 82.285 43.5293 82.8786C42.7292 83.4722 42.0547 84.2182 41.5445 85.0735C41.0343 85.9288 40.6986 86.8766 40.5567 87.8621C40.5222 88.0833 40.4972 88.3056 40.4817 88.5292C41.4198 93.7174 42.3976 98.7695 43.4504 103.565C43.7903 105.113 43.2165 108.081 44.4945 108.125C45.7725 108.169 45.2577 111.239 45.6557 112.739C48.1059 121.978 49.6554 126.449 58.0399 133.332Z" fill="#2F2E41"/>
<path d="M46.8815 158.09L43.2854 156.215L48.9751 141.156L54.2826 143.924L46.8815 158.09Z" fill="#FFB6B6"/>
<path d="M46.2822 146.848L52.0486 150.814C59.1158 140.603 63.7046 126.957 67.122 111.688C80.4279 105.888 92.0709 99.2535 100.184 90.3538C101.517 88.8618 102.215 86.91 102.132 84.9121C102.049 82.9142 101.191 81.0271 99.7391 79.6507C99.5971 79.5177 99.4503 79.3903 99.2987 79.2685C95.7845 76.4716 87.9795 78.081 82.9908 75.7433L74.0791 88.0668L75.1035 90.9371L72.0033 92.445L69.3858 93.7182L66.3894 95.1756L56.5667 99.9532C55.6762 100.398 54.8826 101.014 54.2317 101.767C53.5808 102.52 53.0856 103.394 52.7745 104.339C52.4633 105.284 52.3426 106.281 52.4191 107.272C52.4956 108.264 52.7678 109.231 53.2202 110.117C53.3194 110.318 53.4272 110.514 53.5433 110.706L49.8953 128.864C49.8953 128.864 50.8991 132.025 49.3196 131.729C47.7401 131.433 48.6008 135.307 48.6008 135.307L46.2822 146.848Z" fill="#2F2E41"/>
<path d="M44.7037 166.39L42.008 164.984L42.8551 162.19L40.2945 164.09L33.1448 160.362C32.8021 160.184 32.5255 159.9 32.3555 159.553C32.1854 159.206 32.1308 158.814 32.1996 158.434C32.2683 158.054 32.4569 157.706 32.7378 157.441C33.0186 157.175 33.377 157.006 33.7606 156.959L41.5281 155.996L42.871 153.426L48.6893 156.915L44.7037 166.39Z" fill="#2F2E41"/>
<path d="M123.305 87.444L119.099 77.2887L115.785 79.128L117.786 89.4586C117.586 90.1131 117.572 90.8105 117.746 91.4723C117.921 92.1342 118.277 92.7342 118.774 93.2051C119.271 93.676 119.89 93.999 120.561 94.1378C121.231 94.2766 121.928 94.2256 122.571 93.9907C123.215 93.7559 123.78 93.3463 124.203 92.8081C124.626 92.2699 124.891 91.6245 124.967 90.9443C125.043 90.2641 124.928 89.5762 124.634 88.9578C124.341 88.3395 123.88 87.8153 123.305 87.444Z" fill="#FFB6B6"/>
<path d="M52.728 7.1392L59.1276 16.0783L61.938 13.5366L57.646 3.92775C57.6928 3.24492 57.5481 2.56259 57.228 1.95746C56.9079 1.35233 56.4253 0.848402 55.8343 0.502321C55.2433 0.156239 54.5674 -0.0182718 53.8825 -0.00159262C53.1977 0.0150865 52.5311 0.222294 51.9577 0.596736C51.3843 0.971177 50.9268 1.498 50.6366 2.118C50.3464 2.73799 50.2351 3.42655 50.3151 4.10629C50.3952 4.78604 50.6634 5.43 51.0896 5.96579C51.5159 6.50157 52.0833 6.90794 52.728 7.1392Z" fill="#FFB6B6"/>
<path d="M81.627 63.7964C77.4762 70.229 92.6831 84.2447 100.689 80.9674C102.091 80.3935 106.913 78.498 103.617 75.87C100.321 73.2421 103.999 76.1831 104.086 74.4724C104.144 73.3287 103.258 70.8197 104.183 70.9273C105.107 71.0349 105.638 68.3628 103.624 67.6821C102.924 67.4323 102.309 66.9881 101.853 66.4017C101.396 65.8152 101.117 65.1109 101.047 64.3713C100.854 57.3205 103.244 49.9591 103.244 49.9591L113 74.8768C113 74.8768 112.928 79.1877 114.172 77.8703C115.417 76.5529 115.326 80.8166 115.326 80.8166C115.326 80.8166 117.176 82.1066 116.112 82.8245C115.048 83.5425 117.258 85.7497 117.258 85.7497L122.412 85.3818C122.412 85.3818 122.332 81.556 121.451 80.7099C120.571 79.8638 121.004 78.5324 121.004 78.5324C121.004 78.5324 119.189 76.8461 120.248 74.8601C121.308 72.8742 112.534 37.3515 112.534 37.3515C112.183 35.6425 111.365 34.0638 110.172 32.79C108.979 31.5162 107.456 30.5969 105.772 30.1338L100.205 28.6022L99.2162 24.6832H91.3769L90.0114 27.2583L77.4929 26.1547C77.4929 26.1547 65.1059 14.8942 65.7107 14.015C66.3155 13.1357 64.3953 11.0773 64.3953 11.0773C64.3953 11.0773 62.7554 10.541 63.6808 10.2547C64.6061 9.96839 62.857 9.30645 62.857 9.30645C62.857 9.30645 61.2371 8.88116 62.0012 8.32117C62.7652 7.76118 59.4514 7.39331 59.4514 7.39331L55.152 10.8982L56.021 12.3704C56.021 12.3704 55.4911 14.3751 56.1826 13.6432C56.8741 12.9114 57.0042 15.0352 57.0042 15.0352C57.0042 15.0352 57.3574 17.3609 59.4514 18.0616C61.5455 18.7623 63.1333 25.419 63.1333 25.419L80.8066 40.1338C78.1149 43.2206 78.7555 46.4486 81.14 49.7506L81.627 63.7964Z" fill="#25BEF5"/>
<path d="M95.1198 22.0793C99.8081 22.0793 103.609 18.282 103.609 13.5978C103.609 8.91363 99.8081 5.11633 95.1198 5.11633C90.4315 5.11633 86.6309 8.91363 86.6309 13.5978C86.6309 18.282 90.4315 22.0793 95.1198 22.0793Z" fill="#FFB6B6"/>
<path d="M102.53 11.0721C102.313 11.1346 99.1242 11.5503 97.7435 11.8078C96.3885 12.0616 96.1529 10.3363 95.0446 10.6601C95.0452 10.6525 95.0439 10.6449 95.0409 10.638C94.8691 9.72382 94.5756 8.83673 94.1683 8.00035C94.3161 8.80141 94.3372 9.62068 94.2309 10.4283C94.2303 10.4493 94.2278 10.4702 94.2236 10.4908C94.2199 10.5276 94.2125 10.5607 94.2088 10.5975C93.038 10.0825 92.2942 10.5423 91.4842 10.7042C90.5785 10.8845 89.8715 11.2818 90.3796 14.3829C91.4216 20.7618 96.8414 23.0389 95.9025 27.2584C95.7184 28.0934 95.2545 29.1382 94.6728 29.3994C94.5009 28.4852 94.2075 27.5981 93.8001 26.7617C93.9479 27.5628 93.9691 28.3821 93.8628 29.1897C92.9607 28.2148 92.309 24.8083 89.2751 22.1082C88.5276 21.446 84.7831 17.5172 84.3339 16.5901C84.4718 17.3313 84.5384 18.084 84.5328 18.8378C84.5336 19.3424 84.4992 19.8463 84.4297 20.3461C84.4296 20.3783 84.4259 20.4104 84.4186 20.4417C84.415 20.5006 84.4039 20.5521 84.3965 20.6073C84.3892 20.6698 84.3781 20.7287 84.3671 20.7912C83.141 20.6146 82.0548 20.4013 81.543 19.901C79.0541 17.4804 82.0916 12.7643 83.7522 8.49697C86.127 2.38665 93.0233 1.57365 93.6934 1.50744C96.6463 1.20946 101.635 1.8422 103.266 5.18614C104.408 7.52947 103.679 10.741 102.53 11.0721Z" fill="#2F2E41"/>
<path d="M84.6302 12.4513L90.7795 2.89395C89.3057 2.03917 87.6276 1.59936 85.9237 1.62126C85.0745 1.6389 84.2386 1.83512 83.4704 2.19713C82.7022 2.55915 82.0189 3.07884 81.4652 3.72233C80.2093 5.28181 79.9938 7.48631 80.4644 9.43193C80.6269 10.1039 83.7214 7.73959 82.985 8.8432C82.3805 9.70726 81.392 13.3391 81.1441 14.3613C80.7451 16.0063 79.6479 17.6949 80.6252 19.0775C81.7809 20.7125 83.8432 21.5252 85.8449 21.6078C87.8466 21.6903 89.8168 21.1361 91.7191 20.5083L84.6302 12.4513Z" fill="#2F2E41"/>
<path d="M86.993 12.0744C86.9042 12.0742 86.8185 12.0421 86.7515 11.9838C86.6846 11.9255 86.641 11.845 86.6288 11.7571C86.6165 11.6693 86.6365 11.5799 86.685 11.5056C86.7334 11.4313 86.8071 11.3769 86.8925 11.3526C86.9891 11.1935 86.9495 10.5237 86.9177 9.98245C86.798 7.95036 86.5975 4.54937 89.9023 2.25358C89.9824 2.19789 90.0814 2.17629 90.1775 2.19354C90.2736 2.21079 90.3589 2.26547 90.4146 2.34555C90.4704 2.42563 90.492 2.52455 90.4747 2.62056C90.4575 2.71656 90.4028 2.80179 90.3226 2.85748C87.3569 4.91795 87.5349 7.93976 87.6528 9.93916C87.7201 11.0823 87.7688 11.908 87.0749 12.0652C87.048 12.0713 87.0206 12.0744 86.993 12.0744Z" fill="#25BEF5"/>
<path d="M1.93093e-06 166.259C-0.000342314 166.375 0.0453547 166.486 0.127034 166.568C0.208714 166.65 0.319687 166.697 0.435545 166.697H263.802C263.919 166.697 264.03 166.651 264.112 166.569C264.194 166.487 264.241 166.375 264.241 166.259C264.241 166.143 264.194 166.032 264.112 165.95C264.03 165.868 263.919 165.821 263.802 165.821H0.438163C0.380793 165.821 0.323955 165.832 0.270887 165.854C0.21782 165.876 0.169563 165.908 0.128877 165.948C0.088191 165.989 0.0558719 166.037 0.0337615 166.09C0.0116511 166.143 0.000181666 166.199 1.31673e-05 166.257L1.93093e-06 166.259Z" fill="#3B3B3C"/>
<path d="M162.938 34.8923H157.366C157.219 34.8923 157.077 34.8336 156.972 34.7292C156.868 34.6248 156.809 34.4832 156.809 34.3356C156.809 34.188 156.868 34.0464 156.972 33.942C157.077 33.8376 157.219 33.7789 157.366 33.7789H162.938C163.086 33.7789 163.227 33.8376 163.332 33.942C163.436 34.0464 163.495 34.188 163.495 34.3356C163.495 34.4832 163.436 34.6248 163.332 34.7292C163.227 34.8336 163.086 34.8923 162.938 34.8923Z" fill="#25BEF5"/>
<path d="M172.967 34.8923H167.395C167.322 34.8923 167.249 34.8779 167.182 34.8499C167.114 34.8219 167.053 34.7809 167.001 34.7292C166.949 34.6775 166.908 34.6162 166.88 34.5486C166.852 34.4811 166.838 34.4087 166.838 34.3356C166.838 34.2625 166.852 34.1901 166.88 34.1226C166.908 34.055 166.949 33.9937 167.001 33.942C167.053 33.8903 167.114 33.8493 167.182 33.8213C167.249 33.7933 167.322 33.7789 167.395 33.7789H172.967C173.04 33.7789 173.112 33.7933 173.18 33.8213C173.247 33.8493 173.309 33.8903 173.361 33.942C173.412 33.9937 173.453 34.055 173.481 34.1226C173.509 34.1901 173.524 34.2625 173.524 34.3356C173.524 34.4087 173.509 34.4811 173.481 34.5486C173.453 34.6162 173.412 34.6775 173.361 34.7292C173.309 34.7809 173.247 34.8219 173.18 34.8499C173.112 34.8779 173.04 34.8923 172.967 34.8923Z" fill="#25BEF5"/>
<path d="M177.981 39.3456H172.409C172.336 39.3456 172.264 39.3312 172.196 39.3033C172.129 39.2753 172.067 39.2343 172.015 39.1826C171.964 39.1309 171.923 39.0695 171.895 39.002C171.867 38.9345 171.852 38.8621 171.852 38.789C171.852 38.7159 171.867 38.6435 171.895 38.5759C171.923 38.5084 171.964 38.447 172.015 38.3953C172.067 38.3437 172.129 38.3026 172.196 38.2747C172.264 38.2467 172.336 38.2323 172.409 38.2323H177.981C178.054 38.2323 178.127 38.2467 178.194 38.2747C178.262 38.3026 178.323 38.3437 178.375 38.3953C178.427 38.447 178.468 38.5084 178.496 38.5759C178.524 38.6435 178.538 38.7159 178.538 38.789C178.538 38.8621 178.524 38.9345 178.496 39.002C178.468 39.0695 178.427 39.1309 178.375 39.1826C178.323 39.2343 178.262 39.2753 178.194 39.3033C178.127 39.3312 178.054 39.3456 177.981 39.3456Z" fill="#25BEF5"/>
<path d="M167.983 39.3456H157.366C157.219 39.3456 157.077 39.287 156.972 39.1826C156.868 39.0782 156.809 38.9366 156.809 38.789C156.809 38.6413 156.868 38.4997 156.972 38.3953C157.077 38.2909 157.219 38.2323 157.366 38.2323H167.983C168.131 38.2323 168.272 38.2909 168.377 38.3953C168.481 38.4997 168.54 38.6413 168.54 38.789C168.54 38.9366 168.481 39.0782 168.377 39.1826C168.272 39.287 168.131 39.3456 167.983 39.3456Z" fill="#25BEF5"/>
<path d="M188.04 34.8923H177.424C177.276 34.8923 177.134 34.8336 177.03 34.7292C176.925 34.6248 176.867 34.4832 176.867 34.3356C176.867 34.188 176.925 34.0464 177.03 33.942C177.134 33.8376 177.276 33.7789 177.424 33.7789H188.04C188.114 33.7789 188.186 33.7933 188.254 33.8213C188.321 33.8493 188.383 33.8903 188.434 33.942C188.486 33.9937 188.527 34.055 188.555 34.1226C188.583 34.1901 188.597 34.2625 188.597 34.3356C188.597 34.4087 188.583 34.4811 188.555 34.5486C188.527 34.6162 188.486 34.6775 188.434 34.7292C188.383 34.7809 188.321 34.8219 188.254 34.8499C188.186 34.8779 188.114 34.8923 188.04 34.8923Z" fill="#25BEF5"/>
<path d="M166.752 26.4593H156.136C156.062 26.4595 155.99 26.4452 155.922 26.4173C155.854 26.3894 155.793 26.3485 155.741 26.2967C155.689 26.245 155.648 26.1836 155.62 26.116C155.591 26.0483 155.577 25.9758 155.577 25.9026C155.577 25.8294 155.591 25.7569 155.62 25.6893C155.648 25.6216 155.689 25.5602 155.741 25.5085C155.793 25.4568 155.854 25.4158 155.922 25.3879C155.99 25.36 156.062 25.3458 156.136 25.3459H166.752C166.9 25.3459 167.042 25.4046 167.146 25.509C167.251 25.6134 167.309 25.755 167.309 25.9026C167.309 26.0503 167.251 26.1918 167.146 26.2962C167.042 26.4006 166.9 26.4593 166.752 26.4593Z" fill="#25BEF5"/>
<path d="M167.625 29.7115C167.521 29.7116 167.42 29.6792 167.335 29.6188C167.25 29.5584 167.187 29.4732 167.153 29.3749C167.119 29.2766 167.117 29.1702 167.147 29.0706C167.176 28.971 167.237 28.8832 167.319 28.8194L170.037 26.7082C170.146 26.6234 170.237 26.5168 170.303 26.3952C170.369 26.2737 170.408 26.1397 170.42 26.002C170.431 25.8642 170.414 25.7256 170.369 25.5949C170.324 25.4642 170.252 25.3443 170.158 25.2427L167.876 22.7741C167.831 22.726 167.797 22.6697 167.774 22.6082C167.751 22.5468 167.741 22.4816 167.743 22.4161C167.746 22.3507 167.762 22.2865 167.789 22.227C167.816 22.1676 167.855 22.1141 167.903 22.0697C167.952 22.0252 168.008 21.9907 168.069 21.9681C168.131 21.9454 168.196 21.9351 168.262 21.9376C168.327 21.9402 168.391 21.9557 168.451 21.9831C168.51 22.0105 168.564 22.0493 168.608 22.0974L171.998 25.7632C172.045 25.8139 172.08 25.8738 172.103 25.939C172.126 26.0043 172.134 26.0735 172.129 26.1424C172.123 26.2112 172.103 26.278 172.07 26.3388C172.037 26.3995 171.992 26.4527 171.938 26.4951L167.931 29.6066C167.844 29.6747 167.736 29.7116 167.625 29.7115Z" fill="#25BEF5"/>
<path d="M155.598 29.7115C155.702 29.7116 155.804 29.6792 155.888 29.6188C155.973 29.5584 156.037 29.4732 156.071 29.3749C156.104 29.2766 156.106 29.1702 156.077 29.0706C156.047 28.971 155.987 28.8832 155.905 28.8194L153.186 26.7082C153.077 26.6234 152.987 26.5168 152.921 26.3952C152.855 26.2737 152.815 26.1397 152.804 26.002C152.792 25.8642 152.81 25.7256 152.855 25.5949C152.9 25.4642 152.972 25.3443 153.066 25.2427L155.348 22.7741C155.392 22.726 155.427 22.6697 155.45 22.6082C155.472 22.5468 155.483 22.4816 155.48 22.4161C155.477 22.3507 155.462 22.2865 155.435 22.227C155.407 22.1676 155.368 22.1141 155.32 22.0697C155.272 22.0252 155.216 21.9907 155.154 21.9681C155.093 21.9454 155.027 21.9351 154.962 21.9376C154.896 21.9402 154.832 21.9557 154.773 21.9831C154.713 22.0105 154.66 22.0493 154.615 22.0974L151.226 25.7632C151.179 25.8139 151.143 25.8738 151.121 25.939C151.098 26.0043 151.089 26.0735 151.095 26.1424C151.101 26.2112 151.12 26.278 151.153 26.3388C151.186 26.3995 151.231 26.4527 151.286 26.4951L155.292 29.6066C155.38 29.6747 155.487 29.7116 155.598 29.7115Z" fill="#25BEF5"/>
<path d="M172.241 48.892H161.624C161.476 48.892 161.334 48.8334 161.23 48.729C161.125 48.6246 161.067 48.483 161.067 48.3354C161.067 48.1877 161.125 48.0461 161.23 47.9417C161.334 47.8373 161.476 47.7787 161.624 47.7787H172.241C172.388 47.7787 172.53 47.8373 172.635 47.9417C172.739 48.0461 172.798 48.1877 172.798 48.3354C172.798 48.483 172.739 48.6246 172.635 48.729C172.53 48.8334 172.388 48.892 172.241 48.892Z" fill="#25BEF5"/>
<path d="M174.111 51.6457C174.007 51.6458 173.906 51.6134 173.821 51.553C173.737 51.4926 173.673 51.4073 173.639 51.3091C173.605 51.2108 173.603 51.1044 173.633 51.0048C173.663 50.9052 173.723 50.8174 173.805 50.7536L176.523 48.6424C176.633 48.5576 176.723 48.451 176.789 48.3294C176.855 48.2079 176.895 48.0739 176.906 47.9362C176.917 47.7984 176.9 47.6598 176.855 47.5291C176.81 47.3984 176.738 47.2785 176.644 47.1769L174.362 44.7083C174.317 44.6602 174.283 44.6039 174.26 44.5424C174.237 44.481 174.227 44.4157 174.23 44.3503C174.232 44.2849 174.248 44.2207 174.275 44.1612C174.303 44.1018 174.342 44.0483 174.39 44.0039C174.438 43.9594 174.494 43.9249 174.556 43.9022C174.617 43.8796 174.682 43.8693 174.748 43.8718C174.813 43.8744 174.878 43.8899 174.937 43.9173C174.997 43.9447 175.05 43.9835 175.095 44.0316L178.484 47.6974C178.531 47.7481 178.567 47.808 178.589 47.8732C178.612 47.9385 178.62 48.0077 178.615 48.0765C178.609 48.1454 178.589 48.2122 178.556 48.273C178.523 48.3337 178.478 48.3869 178.424 48.4293L174.417 51.5408C174.33 51.6089 174.222 51.6458 174.111 51.6457Z" fill="#25BEF5"/>
<path d="M155.598 51.6457C155.702 51.6458 155.804 51.6134 155.888 51.553C155.973 51.4926 156.037 51.4073 156.071 51.3091C156.104 51.2108 156.106 51.1044 156.077 51.0048C156.047 50.9052 155.987 50.8174 155.905 50.7536L153.186 48.6424C153.077 48.5576 152.987 48.451 152.921 48.3294C152.855 48.2079 152.815 48.0739 152.804 47.9362C152.792 47.7984 152.81 47.6598 152.855 47.5291C152.9 47.3984 152.972 47.2785 153.066 47.1769L155.348 44.7083C155.438 44.6112 155.485 44.4824 155.48 44.3503C155.475 44.2182 155.417 44.0936 155.32 44.0039C155.223 43.9141 155.094 43.8666 154.962 43.8718C154.83 43.8771 154.705 43.9345 154.615 44.0316L151.226 47.6974C151.179 47.7481 151.143 47.808 151.121 47.8732C151.098 47.9385 151.089 48.0077 151.095 48.0765C151.101 48.1454 151.12 48.2122 151.153 48.273C151.186 48.3337 151.231 48.3869 151.286 48.4293L155.292 51.5408C155.38 51.6089 155.488 51.6458 155.598 51.6457Z" fill="#25BEF5"/>
<path d="M156.546 50.086L158.778 44.9854C158.837 44.8508 158.948 44.7453 159.085 44.6919C159.222 44.6386 159.375 44.6417 159.51 44.7007C159.645 44.7596 159.751 44.8696 159.805 45.0066C159.859 45.1435 159.857 45.2962 159.799 45.4314L157.567 50.532C157.538 50.5993 157.496 50.6602 157.443 50.7112C157.39 50.7623 157.328 50.8024 157.26 50.8293C157.191 50.8562 157.119 50.8693 157.045 50.868C156.972 50.8667 156.899 50.8509 156.832 50.8215C156.765 50.7921 156.704 50.7498 156.653 50.6969C156.602 50.644 156.563 50.5815 156.536 50.5132C156.509 50.4449 156.497 50.3719 156.498 50.2986C156.5 50.2253 156.516 50.1531 156.546 50.086Z" fill="#25BEF5"/>
</g>
<defs>
<clipPath id="clip0_32_149">
<rect width="264.241" height="167" fill="white"/>
</clipPath>
</defs>
</svg>
